<svg xmlns="http://www.w3.org/2000/svg" xmlns:xlink="http://www.w3.org/1999/xlink" version="1.1" style="" xml:space="preserve" width="38" height="33"><rect id="backgroundrect" width="100%" height="100%" x="0" y="0" fill="none" stroke="none" class="" style=""/>
<g class="currentLayer" style=""><title>Layer 1</title>
<g id="svg_492" class="" transform="">
	<g id="svg_493" transform="">
		<path style="fill:#178282;" d="M16.72589111328125,33.29899978637695 h-9.829999923706055 c-0.8799999952316284,0 -1.5970001220703125,-0.7219997048377991 -1.5970001220703125,-1.6080000400543213 v-6.236000061035156 c-0.7249997854232788,-0.527999997138977 -1.1660000085830688,-1.3899999856948853 -1.1660000085830688,-2.309000015258789 v-2.1389999389648438 l-3.7139999866485596,-4.751999855041504 c-0.32400012016296387,-0.41200000047683716 -0.46799999475479126,-0.9259999990463257 -0.40400001406669617,-1.4479999542236328 c0.06300000101327896,-0.5130000114440918 0.3200001120567322,-0.9690002202987671 0.7259997725486755,-1.284000039100647 c0.40400001406669617,-0.32500001788139343 0.9150000214576721,-0.47200000286102295 1.4329999685287476,-0.40700000524520874 c0.511999785900116,0.06300000101327896 0.9670002460479736,0.3230000138282776 1.281000018119812,0.734000027179718 l1.8450000286102295,2.3529999256134033 v-12.369999885559082 c0,-0.9380003213882446 0.7580000162124634,-1.7009999752044678 1.6890000104904175,-1.7009999752044678 c0.6710000038146973,0 1.253000020980835,0.3880000114440918 1.531000018119812,0.9490002393722534 v-1.378999948501587 c0,-0.9380003213882446 0.7580000162124634,-1.7019999027252197 1.6890000104904175,-1.7019999027252197 c0.9320002198219299,0 1.6890000104904175,0.7639999985694885 1.6890000104904175,1.7019999027252197 c0,0.257999986410141 -0.21000002324581146,0.46799999475479126 -0.46799999475479126,0.46799999475479126 c-0.257999986410141,0 -0.46799999475479126,-0.21000002324581146 -0.46799999475479126,-0.46799999475479126 c0,-0.41600000858306885 -0.3449999988079071,-0.7670000195503235 -0.7540000081062317,-0.7670000195503235 c-0.41600000858306885,0 -0.7540000081062317,0.3440000116825104 -0.7540000081062317,0.7670000195503235 v10.788000106811523 c0,0.257999986410141 -0.21000002324581146,0.46799999475479126 -0.46799999475479126,0.46799999475479126 c-0.257999986410141,0 -0.46799999475479126,-0.21000002324581146 -0.46799999475479126,-0.46799999475479126 v-8.291999816894531 c-0.2640001177787781,0.2160000056028366 -0.7590000033378601,0.004000000189989805 -0.7590000033378601,-0.36500000953674316 c0,-0.4230000078678131 -0.34700000286102295,-0.7659997940063477 -0.7719997763633728,-0.7659997940063477 c-0.4090000092983246,0 -0.7540000081062317,0.35100001096725464 -0.7540000081062317,0.7659997940063477 v13.255999565124512 h5.066999912261963 c0.257999986410141,0 0.46799999475479126,0.21000002324581146 0.46799999475479126,0.46799999475479126 c0,0.257999986410141 -0.21000002324581146,0.46799999475479126 -0.46799999475479126,0.46799999475479126 h-5.5289998054504395 c-0.014000000432133675,-0.0020000000949949026 -0.02800000086426735,-0.0010000000474974513 -0.0430000014603138,-0.0020000000949949026 c-0.08900003135204315,-0.007000000216066837 -0.17100000381469727,-0.039000000804662704 -0.23800000548362732,-0.08900003135204315 c-0.027000008150935173,-0.01900000497698784 -0.0520000196993351,-0.04100000113248825 -0.0740000307559967,-0.06600000709295273 c-0.007000000216066837,-0.009000001475214958 -0.015000002458691597,-0.017000000923871994 -0.021000007167458534,-0.025000007823109627 l-2.680999994277954,-3.4189999103546143 c-0.164000004529953,-0.21400000154972076 -0.39600011706352234,-0.3479999899864197 -0.6550002098083496,-0.3790000081062317 c-0.2660001218318939,-0.03400000184774399 -0.527999997138977,0.0430000014603138 -0.7400000095367432,0.2120000272989273 c-0.2120000272989273,0.16600002348423004 -0.3449999988079071,0.4009999930858612 -0.37700000405311584,0.6650000214576721 c-0.032999999821186066,0.27300000190734863 0.04200001433491707,0.5419999957084656 0.2120000272989273,0.7580000162124634 l3.814000129699707,4.880000114440918 c0.06400000303983688,0.0820000022649765 0.10000000149011612,0.18400000035762787 0.10000000149011612,0.2879999876022339 v2.299999952316284 c0,0.693000316619873 0.3490000069141388,1.3109999895095825 0.9350002408027649,1.6530001163482666 c0.14300000667572021,0.08400001376867294 0.23100000619888306,0.2370000034570694 0.23100000619888306,0.40299999713897705 v6.48799991607666 c0,0.3709999918937683 0.29700011014938354,0.6730002164840698 0.6610000133514404,0.6730002164840698 h9.829999923706055 c0.36500000953674316,0 0.6610000133514404,-0.3020000159740448 0.6610000133514404,-0.6730002164840698 v-27.857999801635742 c0,-0.41499999165534973 -0.3449999988079071,-0.7659997940063477 -0.7540000081062317,-0.7659997940063477 c-0.41899991035461426,0 -0.7719997763633728,0.35100001096725464 -0.7719997763633728,0.7659997940063477 v8.656999588012695 c0,0.257999986410141 -0.21000002324581146,0.46799999475479126 -0.46799999475479126,0.46799999475479126 c-0.257999986410141,0 -0.46799999475479126,-0.21000002324581146 -0.46799999475479126,-0.46799999475479126 v-8.656999588012695 c0,-0.9380003213882446 0.7670000195503235,-1.7009999752044678 1.7079999446868896,-1.7009999752044678 c0.9320002198219299,0 1.6890000104904175,0.7639999985694885 1.6890000104904175,1.7009999752044678 v27.857999801635742 C18.322906494140625,32.57698440551758 17.60589599609375,33.29899978637695 16.72589111328125,33.29899978637695 zM12.190872192382812,12.956989288330078 c-0.257999986410141,0 -0.46799999475479126,-0.21000002324581146 -0.46799999475479126,-0.46799999475479126 v-9.871999740600586 c0,-0.9380003213882446 0.7580000162124634,-1.7019999027252197 1.690000057220459,-1.7019999027252197 c0.9320002198219299,0 1.6890000104904175,0.7639999985694885 1.6890000104904175,1.7019999027252197 c0,0.257999986410141 -0.21000002324581146,0.46799999475479126 -0.46799999475479126,0.46799999475479126 c-0.257999986410141,0 -0.46799999475479126,-0.21000002324581146 -0.46799999475479126,-0.46799999475479126 c0,-0.4230000078678131 -0.33799999952316284,-0.7670000195503235 -0.7540000081062317,-0.7670000195503235 c-0.4090000092983246,0 -0.7540000081062317,0.35100001096725464 -0.7540000081062317,0.7670000195503235 v9.871999740600586 C12.658889770507812,12.746997833251953 12.448898315429688,12.956989288330078 12.190872192382812,12.956989288330078 z" id="svg_494" transform=""/>
	</g>
	<g id="svg_495" transform="">
		<path style="fill:#178282;" d="M28.109878540039062,33.29899978637695 c-0.9320002198219299,0 -1.6890000104904175,-0.7639999985694885 -1.6890000104904175,-1.7019999027252197 c0,-0.257999986410141 0.21000002324581146,-0.46799999475479126 0.46799999475479126,-0.46799999475479126 c0.257999986410141,0 0.46799999475479126,0.21000002324581146 0.46799999475479126,0.46799999475479126 c0,0.4230000078678131 0.33799999952316284,0.7670000195503235 0.7540000081062317,0.7670000195503235 c0.43400001525878906,0 0.7719997763633728,-0.3370000123977661 0.7719997763633728,-0.7670000195503235 v-10.788000106811523 c0,-0.257999986410141 0.21000002324581146,-0.46799999475479126 0.46799999475479126,-0.46799999475479126 s0.46799999475479126,0.21000002324581146 0.46799999475479126,0.46799999475479126 v8.291000366210938 c0.26500001549720764,-0.21400000154972076 0.7590000033378601,-0.003000000026077032 0.7590000033378601,0.36500000953674316 c0,0.4230000078678131 0.33900001645088196,0.7670000195503235 0.7549999952316284,0.7670000195503235 c0.4090000092983246,0 0.7540000081062317,-0.35100001096725464 0.7540000081062317,-0.7670000195503235 v-13.255000114440918 h-5.066999912261963 c-0.257999986410141,0 -0.46799999475479126,-0.21000002324581146 -0.46799999475479126,-0.46799999475479126 c0,-0.257999986410141 0.21000002324581146,-0.46799999475479126 0.46799999475479126,-0.46799999475479126 h5.53000020980835 c0.0130000039935112,0 0.024000007659196854,0 0.03700000047683716,0.0020000000949949026 c0.0910000130534172,0.006000000052154064 0.17499995231628418,0.03800000995397568 0.24400000274181366,0.08900003135204315 c0.0010000000474974513,0 0.0010000000474974513,0 0.0010000000474974513,0 c0,0.0010000000474974513 0,0.0010000000474974513 0,0.0010000000474974513 c0.0260000079870224,0.018000002950429916 0.050000015646219254,0.04100000113248825 0.07100003957748413,0.0650000125169754 c0.00800000037997961,0.009000001475214958 0.01600000075995922,0.018000002950429916 0.022000007331371307,0.027000008150935173 l2.680999994277954,3.437000036239624 c0.3409999907016754,0.4309999942779541 0.9770002365112305,0.503000020980835 1.4179999828338623,0.161000058054924 c0.42600011825561523,-0.34299999475479126 0.5019997954368591,-1.0019999742507935 0.161000058054924,-1.4359999895095825 l-3.8320000171661377,-4.880000114440918 c-0.0650000125169754,-0.08300001174211502 -0.10100000351667404,-0.1850000023841858 -0.10100000351667404,-0.289000004529953 v-2.2799999713897705 c0,-0.694000244140625 -0.35700011253356934,-1.3350000381469727 -0.9350002408027649,-1.6730000972747803 c-0.14399999380111694,-0.08400001376867294 -0.23200002312660217,-0.2370000034570694 -0.23200002312660217,-0.40299999713897705 v-6.486999988555908 c0,-0.3779999911785126 -0.29100000858306885,-0.6730002164840698 -0.6620000004768372,-0.6730002164840698 h-9.810999870300293 c-0.3709999918937683,0 -0.6610000133514404,0.29500001668930054 -0.6610000133514404,0.6730002164840698 v27.85700035095215 c0,0.4230000078678131 0.33799999952316284,0.7670000195503235 0.7540000081062317,0.7670000195503235 c0.4090000092983246,0 0.7540000081062317,-0.35100001096725464 0.7540000081062317,-0.7670000195503235 v-8.656000137329102 c0,-0.257999986410141 0.21000002324581146,-0.46799999475479126 0.46799999475479126,-0.46799999475479126 c0.257999986410141,0 0.46799999475479126,0.21000002324581146 0.46799999475479126,0.46799999475479126 v8.656000137329102 c0,0.9380003213882446 -0.7580000162124634,1.7019999027252197 -1.6890000104904175,1.7019999027252197 c-0.9320002198219299,0 -1.6890000104904175,-0.7639999985694885 -1.6890000104904175,-1.7019999027252197 v-27.85700035095215 c0,-0.9010000228881836 0.7009997963905334,-1.6080000400543213 1.5970001220703125,-1.6080000400543213 h9.810999870300293 c0.8809998035430908,0 1.5980000495910645,0.7219997048377991 1.5980000495910645,1.6080000400543213 v6.235000133514404 c0.7249997854232788,0.5300002098083496 1.1660000085830688,1.3980000019073486 1.1660000085830688,2.328000068664551 v2.11899995803833 l3.7309999465942383,4.751999855041504 c0.663000226020813,0.8450000286102295 0.5209997892379761,2.0769999027252197 -0.3160000145435333,2.746999979019165 c-0.8510000109672546,0.6650000214576721 -2.074000120162964,0.5180000066757202 -2.7319998741149902,-0.31700000166893005 l-1.8489999771118164,-2.369999885559082 v12.36299991607666 c0,0.9380003213882446 -0.7580000162124634,1.7019999027252197 -1.6890000104904175,1.7019999027252197 c-0.6620000004768372,0 -1.2369999885559082,-0.3860001266002655 -1.5139999389648438,-0.9460002183914185 v1.3760000467300415 C29.817901611328125,32.53499221801758 29.051895141601562,33.29899978637695 28.109878540039062,33.29899978637695 zM24.90789794921875,32.38200759887695 c-0.9320002198219299,0 -1.6890000104904175,-0.7639999985694885 -1.6890000104904175,-1.7009999752044678 c0,-0.257999986410141 0.21000002324581146,-0.46799999475479126 0.46799999475479126,-0.46799999475479126 c0.257999986410141,0 0.46799999475479126,0.21000002324581146 0.46799999475479126,0.46799999475479126 c0,0.4230000078678131 0.33799999952316284,0.7659997940063477 0.7540000081062317,0.7659997940063477 c0.4300000071525574,0 0.7540000081062317,-0.3290001153945923 0.7540000081062317,-0.7659997940063477 v-9.871999740600586 c0,-0.257999986410141 0.21000002324581146,-0.46799999475479126 0.46799999475479126,-0.46799999475479126 c0.257999986410141,0 0.46799999475479126,0.21000002324581146 0.46799999475479126,0.46799999475479126 v9.871999740600586 C26.597900390625,31.633991241455078 25.854888916015625,32.38200759887695 24.90789794921875,32.38200759887695 z" id="svg_496" transform=""/>
	</g>
</g></g></svg>