<svg xmlns="http://www.w3.org/2000/svg" xmlns:xlink="http://www.w3.org/1999/xlink" version="1.1" style="" xml:space="preserve" width="39" height="31"><rect id="backgroundrect" width="100%" height="100%" x="0" y="0" fill="none" stroke="none" class="" style=""/>
































<g class="currentLayer" style=""><title>Layer 1</title>
	
	
	
	
	
	
	
	
	
	
<g id="svg_394" class="" transform="">
	<g id="svg_395" transform="">
		<path style="fill:#178282;" d="M27.124008178710938,18.437461853027344 c-0.16300006210803986,0 -0.32100000977516174,-0.0860000029206276 -0.40700000524520874,-0.23800000548362732 c-0.12700000405311584,-0.22599995136260986 -0.04700000584125519,-0.5109997987747192 0.17800000309944153,-0.637000322341919 l3.5199999809265137,-1.9790000915527344 l-2.5260000228881836,-4.565999984741211 l-5.679999828338623,3.2260000705718994 c-0.22100000083446503,0.12800000607967377 -0.5090000033378601,0.05100001394748688 -0.637000322341919,-0.17599999904632568 c-0.12800000607967377,-0.2239999920129776 -0.04900000989437103,-0.5099999904632568 0.17599999904632568,-0.637000322341919 l6.090000152587891,-3.4590001106262207 c0.10700000077486038,-0.061000000685453415 0.23499999940395355,-0.0780000314116478 0.35700011253356934,-0.044000014662742615 c0.12000001221895218,0.03400000184774399 0.22200000286102295,0.11400000005960464 0.28200000524520874,0.2239999920129776 l2.9800000190734863,5.385000228881836 c0.12400001287460327,0.22499997913837433 0.044000014662742615,0.5080000162124634 -0.18000000715255737,0.6340002417564392 l-3.9240000247955322,2.2060000896453857 C27.279983520507812,18.41844940185547 27.201980590820312,18.437461853027344 27.124008178710938,18.437461853027344 z" id="svg_396" transform=""/>
	</g>
	<g id="svg_397" transform="">
		<path style="fill:#178282;" d="M13.240005493164062,17.37248992919922 c-0.0430000014603138,0 -0.0860000029206276,-0.006000000052154064 -0.12700000405311584,-0.018000002950429916 c-0.12000001221895218,-0.03400000184774399 -0.22200000286102295,-0.11500000208616257 -0.28200000524520874,-0.22499997913837433 l-1.2590000629425049,-2.2809998989105225 c-0.12400001287460327,-0.2239999920129776 -0.044000014662742615,-0.5059998035430908 0.17900000512599945,-0.6320000290870667 l11.77299976348877,-6.675000190734863 c0.14399999380111694,-0.08300001174211502 0.322000116109848,-0.0820000022649765 0.46600010991096497,0.0020000000949949026 c0.10900001227855682,0.06400000303983688 0.18800002336502075,0.1690000593662262 0.21800002455711365,0.289000004529953 c0.004000000189989805,0.007000000216066837 0.009000001475214958,0.015000002458691597 0.0130000039935112,0.02300000749528408 l1.184999942779541,2.1689999103546143 c0.12200000137090683,0.2239999920129776 0.04200001433491707,0.5049999952316284 -0.18000000715255737,0.6300002336502075 l-11.755000114440918,6.656000137329102 C13.399002075195312,17.351463317871094 13.319992065429688,17.37248992919922 13.240005493164062,17.37248992919922 zM12.613998413085938,14.801445007324219 l0.8070002198219299,1.4630000591278076 l10.942999839782715,-6.196000099182129 l-0.8040000200271606,-1.4730000495910645 L12.613998413085938,14.801445007324219 zM24.223007202148438,7.947471618652344 L24.223007202148438,7.947471618652344 L24.223007202148438,7.947471618652344 zM24.139999389648438,7.749473571777344 c0.0010000000474974513,0 0.0010000000474974513,0 0.0010000000474974513,0 S24.141983032226562,7.749473571777344 24.139999389648438,7.749473571777344 zM26.327987670898438,9.967460632324219 c-0.04200001433491707,0 -0.08500003069639206,-0.006000000052154064 -0.12700000405311584,-0.018000002950429916 c-0.11900000274181366,-0.03400000184774399 -0.22100000083446503,-0.11400000005960464 -0.2809999883174896,-0.2239999920129776 l-1.2039999961853027,-2.1689999103546143 c-0.03500000014901161,-0.04700000584125519 -0.06400000303983688,-0.0910000130534172 -0.08500003069639206,-0.1340000033378601 c-0.1080000028014183,-0.22300000488758087 -0.025000007823109627,-0.49000000953674316 0.18900002539157867,-0.6119998097419739 l11.920999526977539,-6.749000072479248 c0.10900001227855682,-0.06300000101327896 0.23900000751018524,-0.0780000314116478 0.35700011253356934,-0.0430000014603138 c0.12000001221895218,0.03400000184774399 0.22200000286102295,0.11500000208616257 0.28200000524520874,0.22499997913837433 l1.2590000629425049,2.2809998989105225 c0.12400001287460327,0.2239999920129776 0.044000014662742615,0.5059998035430908 -0.17900000512599945,0.6320000290870667 l-11.902000427246094,6.749000072479248 C26.486984252929688,9.947471618652344 26.408004760742188,9.967460632324219 26.327987670898438,9.967460632324219 zM25.692001342773438,7.392448425292969 l0.8149999976158142,1.468999981880188 l11.09000015258789,-6.289000034332275 l-0.8070002198219299,-1.4630000591278076 L25.692001342773438,7.392448425292969 z" id="svg_398" transform=""/>
	</g>
	<g id="svg_399" transform="">
		<path style="fill:#178282;" d="M15.175003051757812,25.830467224121094 c-0.7649998068809509,0 -1.5090000629425049,-0.4020000100135803 -1.8990001678466797,-1.1080000400543213 l-4.052999973297119,-7.290999889373779 c-0.28700000047683716,-0.5099999904632568 -0.35500001907348633,-1.1050000190734863 -0.19300010800361633,-1.6759999990463257 c0.1600000262260437,-0.5630000233650208 0.5230000019073486,-1.0230000019073486 1.0230000019073486,-1.2979999780654907 c0.006000000052154064,-0.003000000026077032 0.08500003069639206,-0.0430000014603138 0.0910000130534172,-0.04600001499056816 l1.2899999618530273,-0.7350000143051147 c0.1080000028014183,-0.06300000101327896 0.23800000548362732,-0.08000001311302185 0.3580000102519989,-0.04500000178813934 c0.1210000291466713,0.032999999821186066 0.22300000488758087,0.11400000005960464 0.2840000092983246,0.2239999920129776 l2.1029999256134033,3.7940001487731934 l10.960000038146973,-6.195000171661377 l-1.7380001544952393,-3.1480000019073486 c-0.328000009059906,-0.570999801158905 -0.12800000607967377,-1.3179999589920044 0.45000001788139343,-1.6570000648498535 c0.5960000157356262,-0.33000001311302185 1.347000002861023,-0.12700000405311584 1.6779999732971191,0.45100000500679016 l2.8350000381469727,5.107999801635742 c0.0010000000474974513,0 0.0010000000474974513,0.0010000000474974513 0.0010000000474974513,0.0010000000474974513 c0.7009997963905334,1.2569999694824219 0.25600001215934753,2.8580000400543213 -0.991000235080719,3.569000005722046 l-1.319000005722046,0.7440000176429749 l0.20000000298023224,0.3610000014305115 c0.3409999907016754,0.6110000014305115 0.42200011014938354,1.3229999542236328 0.22699999809265137,2.005000114440918 c-0.19200006127357483,0.6700000166893005 -0.6270002126693726,1.2200000286102295 -1.2239999771118164,1.5480000972747803 l-3.065999984741211,1.753999948501587 c-0.12300000339746475,0.07000003010034561 -0.2680000066757202,0.0820000022649765 -0.4000000059604645,0.031000006943941116 c-0.13100002706050873,-0.05100001394748688 -0.23200002312660217,-0.15700000524520874 -0.27600011229515076,-0.29100000858306885 c-0.03500000014901161,-0.07100003957748413 -0.05800002068281174,-0.12000001221895218 -0.0740000307559967,-0.1690000593662262 l-0.5390002131462097,-0.9680002331733704 c-0.09700000286102295,-0.17399999499320984 -0.26100000739097595,-0.30300000309944153 -0.4570000171661377,-0.35700011253356934 c-0.20100000500679016,-0.053000014275312424 -0.406000018119812,-0.02900000289082527 -0.5859997868537903,0.07200001180171967 l-3.869999885559082,2.189000129699707 c-0.3700000047683716,0.20900000631809235 -0.5090000033378601,0.6970003247261047 -0.30400004982948303,1.065999984741211 l0.5740000009536743,1.027999997138977 c0.10400000214576721,0.10400000214576721 0.17100000381469727,0.27600011229515076 0.14800000190734863,0.4240001142024994 c-0.022000007331371307,0.1459999680519104 -0.09600000083446503,0.2980000078678131 -0.2280000001192093,0.36600011587142944 C15.860000610351562,25.75048065185547 15.514999389648438,25.830467224121094 15.175003051757812,25.830467224121094 zM11.487991333007812,14.723472595214844 l-0.9070002436637878,0.5130000114440918 c-0.006000000052154064,0.004000000189989805 -0.08700001239776611,0.04500000178813934 -0.09400001168251038,0.04800001531839371 c-0.2640001177787781,0.1459999680519104 -0.46799999475479126,0.406000018119812 -0.5590000152587891,0.7269997596740723 c-0.09400001168251038,0.3290001153945923 -0.05500001460313797,0.6710000038146973 0.10900001227855682,0.9630002379417419 l4.054999828338623,7.294000148773193 c0.23399999737739563,0.4240001142024994 0.6960002183914185,0.6570002436637878 1.1540000438690186,0.6259998083114624 l-0.3790000081062317,-0.6759999990463257 c-0.4580000042915344,-0.8219997882843018 -0.16200006008148193,-1.8700000047683716 0.6590002179145813,-2.3350000381469727 l3.86899995803833,-2.187999963760376 c0.3970000147819519,-0.22599995136260986 0.8560000061988831,-0.28200000524520874 1.2990000247955322,-0.15900002419948578 c0.4390000104904175,0.12200000137090683 0.8030002117156982,0.40799999237060547 1.0240000486373901,0.8059999942779541 l0.4350000023841858,0.7930002212524414 l2.6459999084472656,-1.5130000114440918 c0.38400012254714966,-0.2120000272989273 0.6590002179145813,-0.5630000233650208 0.7819997072219849,-0.991000235080719 c0.12700000405311584,-0.44099998474121094 0.07500004023313522,-0.8990002274513245 -0.14399999380111694,-1.2929999828338623 l-0.42600011825561523,-0.7680000066757202 c-0.125,-0.22499997913837433 -0.04500000178813934,-0.5080000162124634 0.17900000512599945,-0.6340002417564392 l1.7219996452331543,-0.972000002861023 c0.7879998087882996,-0.4490000009536743 1.0800000429153442,-1.503000020980835 0.637000322341919,-2.299999952316284 l-2.8350000381469727,-5.10699987411499 c-0.07500004023313522,-0.1300000250339508 -0.25600001215934753,-0.18000000715255737 -0.4000000059604645,-0.09700000286102295 c-0.12300000339746475,0.07200001180171967 -0.17399999499320984,0.2549999952316284 -0.09900002926588058,0.38700011372566223 l1.9660000801086426,3.559999942779541 c0.12400001287460327,0.2239999920129776 0.044000014662742615,0.5070000290870667 -0.17900000512599945,0.6330003142356873 l-11.77299976348877,6.65500020980835 c-0.10900001227855682,0.061000000685453415 -0.23800000548362732,0.07600001245737076 -0.35700011253356934,0.0430000014603138 c-0.12000001221895218,-0.03400000184774399 -0.22200000286102295,-0.11400000005960464 -0.28200000524520874,-0.2239999920129776 L11.487991333007812,14.723472595214844 z" id="svg_400" transform=""/>
	</g>
	<g id="svg_401" transform="">
		<path style="fill:#178282;" d="M12.918991088867188,25.16545867919922 c-0.18800002336502075,0 -0.37700000405311584,-0.0260000079870224 -0.5630000233650208,-0.0780000314116478 c-0.5350000262260437,-0.1510000079870224 -0.9780002236366272,-0.5 -1.2450000047683716,-0.9819999933242798 l-2.5,-4.50600004196167 c-0.5480002164840698,-0.9870002269744873 -0.1940000057220459,-2.244999885559082 0.7900000214576721,-2.802000045776367 c0.1080000028014183,-0.06400000303983688 0.23499999940395355,-0.07900004088878632 0.35700011253356934,-0.044000014662742615 c0.11900000274181366,0.03400000184774399 0.22100000083446503,0.11400000005960464 0.2809999883174896,0.22300000488758087 l4.053999900817871,7.291999816894531 c0.125,0.22499997913837433 0.04600001499056816,0.5080000162124634 -0.17800000309944153,0.6340002417564392 C13.607009887695312,25.07646942138672 13.264999389648438,25.16545867919922 12.918991088867188,25.16545867919922 zM9.501998901367188,17.93248748779297 c-0.24900002777576447,0.3460000157356262 -0.2930000126361847,0.8180000185966492 -0.0740000307559967,1.2130000591278076 l2.5,4.50600004196167 c0.14499995112419128,0.2630000114440918 0.3880000114440918,0.453000009059906 0.6809999942779541,0.5350000262260437 c0.13100002706050873,0.03800000995397568 0.2630000114440918,0.04900000989437103 0.3930000066757202,0.04000001400709152 L9.501998901367188,17.93248748779297 z" id="svg_402" transform=""/>
	</g>
	<g id="svg_403" transform="">
		<path style="fill:#178282;" d="M7.1500091552734375,25.429466247558594 c-0.04200001433491707,0 -0.08500003069639206,-0.006000000052154064 -0.12600000202655792,-0.018000002950429916 c-0.1210000291466713,-0.03400000184774399 -0.22300000488758087,-0.11400000005960464 -0.28299999237060547,-0.2239999920129776 l-1.3140000104904175,-2.374000072479248 c-0.12400001287460327,-0.2239999920129776 -0.04500000178813934,-0.5059998035430908 0.17800000309944153,-0.6330003142356873 l3.7760000228881836,-2.1500000953674316 c0.1080000028014183,-0.06200001388788223 0.2370000034570694,-0.07900004088878632 0.35700011253356934,-0.044000014662742615 c0.1210000291466713,0.03400000184774399 0.22300000488758087,0.11400000005960464 0.28299999237060547,0.2239999920129776 l1.3140000104904175,2.375 c0.12400001287460327,0.22499997913837433 0.04500000178813934,0.5059998035430908 -0.17800000309944153,0.6330003142356873 l-3.7760000228881836,2.1489999294281006 C7.3099822998046875,25.408470153808594 7.2299957275390625,25.429466247558594 7.1500091552734375,25.429466247558594 zM6.4690093994140625,22.765464782714844 l0.8610000014305115,1.555999994277954 l2.9639999866485596,-1.687000036239624 l-0.8610000014305115,-1.5570001602172852 L6.4690093994140625,22.765464782714844 z" id="svg_404" transform=""/>
	</g>
	<g id="svg_405" transform="">
		<path style="fill:#178282;" d="M16.942001342773438,26.12944793701172 c-0.15300002694129944,0 -0.30900001525878906,-0.021000007167458534 -0.4620000123977661,-0.06400000303983688 c-0.4440000057220459,-0.125 -0.8140000104904175,-0.41600000858306885 -1.0379999876022339,-0.8190000057220459 l-0.5740000009536743,-1.027999997138977 c-0.4580000042915344,-0.8219997882843018 -0.16200006008148193,-1.8700000047683716 0.6590002179145813,-2.3350000381469727 l3.86899995803833,-2.187999963760376 c0.3970000147819519,-0.22599995136260986 0.8560000061988831,-0.28200000524520874 1.2990000247955322,-0.15900002419948578 c0.4390000104904175,0.12200000137090683 0.8030002117156982,0.40799999237060547 1.0240000486373901,0.8059999942779541 c0,0.0010000000474974513 0.0010000000474974513,0.0020000000949949026 0.0020000000949949026,0.003000000026077032 l0.5730000138282776,1.0470000505447388 c0.45500001311302185,0.8190000057220459 0.1600000262260437,1.8670001029968262 -0.6600000262260437,2.3329999446868896 l-3.86899995803833,2.187999963760376 C17.511001586914062,26.05547332763672 17.228988647460938,26.12944793701172 16.942001342773438,26.12944793701172 zM20.236007690429688,20.40746307373047 c-0.13200005888938904,0 -0.26100000739097595,0.03400000184774399 -0.3779999911785126,0.10100000351667404 l-3.869999885559082,2.189000129699707 c-0.3700000047683716,0.20900000631809235 -0.5090000033378601,0.6970003247261047 -0.30400004982948303,1.065999984741211 l0.5740000009536743,1.027999997138977 c0.10300000011920929,0.1850000023841858 0.2720000147819519,0.31700000166893005 0.4749999940395355,0.37400001287460327 c0.19500000774860382,0.05500001460313797 0.3970000147819519,0.03200000151991844 0.570999801158905,-0.06600000709295273 l3.868000030517578,-2.189000129699707 c0.36900001764297485,-0.20900000631809235 0.5090000033378601,-0.6990002393722534 0.30400004982948303,-1.0670000314712524 l-0.5740000009536743,-1.0479999780654907 c-0.10000000149011612,-0.1770000010728836 -0.26200011372566223,-0.3050000071525574 -0.4580000042915344,-0.3590001165866852 C20.374984741210938,20.41747283935547 20.305984497070312,20.40746307373047 20.236007690429688,20.40746307373047 z" id="svg_406" transform=""/>
	</g>
	<g id="svg_407" transform="">
		<path style="fill:#178282;" d="M8.723983764648438,28.271446228027344 c-0.0020000000949949026,0 -0.004000000189989805,0 -0.006000000052154064,0 l-2.8510000705718994,-0.03700000047683716 c-0.1680000275373459,-0.003000000026077032 -0.322000116109848,-0.0950000137090683 -0.40299999713897705,-0.24100002646446228 l-2.203000068664551,-3.9819998741149902 c-0.4590001106262207,-0.8240000009536743 -0.1720000058412552,-1.871999979019165 0.6410002112388611,-2.3340001106262207 c0.3920000195503235,-0.22200000286102295 0.8519999980926514,-0.27400001883506775 1.284999966621399,-0.1550000011920929 c0.4449999928474426,0.125 0.8140000104904175,0.41600000858306885 1.0390000343322754,0.8199999928474426 v0.0010000000474974513 l2.9060001373291016,5.234000205993652 c0.08100003004074097,0.14499995112419128 0.0780000314116478,0.3230000138282776 -0.007000000216066837,0.46600010991096497 C9.039993286132812,28.184471130371094 8.887985229492188,28.271446228027344 8.723983764648438,28.271446228027344 zM6.1500091552734375,27.302452087402344 l1.7730000019073486,0.02300000749528408 l-2.5149998664855957,-4.5289998054504395 c-0.10300000011920929,-0.1850000023841858 -0.2709999978542328,-0.3179999887943268 -0.4749999940395355,-0.375 c-0.19500000774860382,-0.05500001460313797 -0.39800000190734863,-0.030000004917383194 -0.5699999928474426,0.06700000166893005 c-0.36900001764297485,0.21000002324581146 -0.4970000088214874,0.6890000104904175 -0.28600001335144043,1.0670000314712524 L6.1500091552734375,27.302452087402344 z" id="svg_408" transform=""/>
	</g>
	<g id="svg_409" transform="">
		<path style="fill:#178282;" d="M12.258987426757812,30.77745819091797 l-10.593999862670898,-0.13100002706050873 c-0.9210000038146973,-0.0260000079870224 -1.6649999618530273,-0.7980002164840698 -1.6649999618530273,-1.7209999561309814 c0.0260000079870224,-0.9340003132820129 0.7919999957084656,-1.683000087738037 1.7079999446868896,-1.683000087738037 l10.595000267028809,0.14900000393390656 c0.9140002131462097,0 1.6640000343322754,0.7639999985694885 1.6640000343322754,1.7009999752044678 C13.966995239257812,30.021446228027344 13.199996948242188,30.77745819091797 12.258987426757812,30.77745819091797 zM1.7010040283203125,28.17845916748047 c-0.40799999237060547,0 -0.7549999952316284,0.3409999907016754 -0.7670000195503235,0.7599999904632568 c0.0010000000474974513,0.4090000092983246 0.3370000123977661,0.761999785900116 0.7490000128746033,0.7730000019073486 l10.581000328063965,0.1300000250339508 c0.42000001668930054,0 0.7670000195503235,-0.33500000834465027 0.7670000195503235,-0.7480000257492065 c0,-0.4230000078678131 -0.33000001311302185,-0.7659997940063477 -0.7350000143051147,-0.7659997940063477 L1.7010040283203125,28.17845916748047 z" id="svg_410" transform=""/>
	</g>
	<g id="svg_411" transform="">
		<path style="fill:#178282;" d="M25.624008178710938,15.297477722167969 c-0.7170000076293945,0 -1.3009999990463257,-0.5879999995231628 -1.3009999990463257,-1.309999942779541 c0,-0.7219997048377991 0.5839999914169312,-1.309000015258789 1.3009999990463257,-1.309000015258789 c0.7070000171661377,0 1.2820000648498535,0.5870000123977661 1.2820000648498535,1.309000015258789 C26.905990600585938,14.709465026855469 26.331008911132812,15.297477722167969 25.624008178710938,15.297477722167969 zM25.624008178710938,13.614463806152344 c-0.20499999821186066,0 -0.36500000953674316,0.164000004529953 -0.36500000953674316,0.37299999594688416 c0,0.21000002324581146 0.1600000262260437,0.37400001287460327 0.36500000953674316,0.37400001287460327 c0.1910000592470169,0 0.34700000286102295,-0.1680000275373459 0.34700000286102295,-0.37400001287460327 C25.970993041992188,13.781486511230469 25.814987182617188,13.614463806152344 25.624008178710938,13.614463806152344 z" id="svg_412" transform=""/>
	</g>
	<g id="svg_413" transform="">
		<path style="fill:#178282;" d="M20.033981323242188,23.298484802246094 c-0.6660000085830688,0 -1.2079999446868896,-0.5460000038146973 -1.2079999446868896,-1.215999960899353 c0,-0.6700000166893005 0.5419999957084656,-1.215999960899353 1.2079999446868896,-1.215999960899353 c0.6660000085830688,0 1.2079999446868896,0.5460000038146973 1.2079999446868896,1.215999960899353 C21.241989135742188,22.75347137451172 20.699996948242188,23.298484802246094 20.033981323242188,23.298484802246094 zM20.033981323242188,21.80248260498047 c-0.1469999998807907,0 -0.2720000147819519,0.12800000607967377 -0.2720000147819519,0.2800000011920929 c0,0.15200002491474152 0.125,0.2800000011920929 0.2720000147819519,0.2800000011920929 c0.1469999998807907,0 0.2720000147819519,-0.12800000607967377 0.2720000147819519,-0.2800000011920929 C20.305984497070312,21.93047332763672 20.180984497070312,21.80248260498047 20.033981323242188,21.80248260498047 z" id="svg_414" transform=""/>
	</g>
</g></g></svg>