<svg xmlns="http://www.w3.org/2000/svg" xmlns:xlink="http://www.w3.org/1999/xlink" version="1.1" style="" xml:space="preserve" width="31" height="38"><rect id="backgroundrect" width="100%" height="100%" x="0" y="0" fill="none" stroke="none" class="" style=""/>
































<g class="currentLayer" style=""><title>Layer 1</title><g id="svg_32" class="" transform="">
	<g id="svg_33" transform="">
		<path style="fill:#178282;" d="M23.126007080078125,38.43898391723633 H7.595001220703125 c-2.559000015258789,0 -4.61899995803833,-2.049999952316284 -5.125999927520752,-5.1020002365112305 l-1.7400000095367432,-10.470000267028809 c-0.0430000014603138,-0.2549999952316284 0.1300000250339508,-0.49600011110305786 0.38400012254714966,-0.538000226020813 c0.25600001215934753,-0.04500000178813934 0.49600011110305786,0.1300000250339508 0.538000226020813,0.38400012254714966 l1.7400000095367432,10.470000267028809 c0.3320000171661377,1.9930002689361572 1.63100004196167,4.321000099182129 4.203999996185303,4.321000099182129 h15.531000137329102 c2.559000015258789,0 3.8540000915527344,-2.328000068664551 4.185999870300293,-4.321000099182129 l1.7030000686645508,-10.1899995803833 c0.04200001433491707,-0.2549999952316284 0.2750000059604645,-0.4309999942779541 0.538000226020813,-0.38400012254714966 c0.2540000081062317,0.04200001433491707 0.42600011825561523,0.28299999237060547 0.38400012254714966,0.538000226020813 l-1.7030000686645508,10.1899995803833 C27.72601318359375,36.38899612426758 25.673995971679688,38.43898391723633 23.126007080078125,38.43898391723633 z" id="svg_34" transform=""/>
	</g>
	<g id="svg_35" transform="">
		<path style="fill:#178282;" d="M24.125,25.072010040283203 h-17.530000686645508 c-3.636000156402588,0 -6.595000267028809,-2.9780001640319824 -6.595000267028809,-6.63700008392334 c0,-3.6700000762939453 2.9590001106262207,-6.656000137329102 6.595000267028809,-6.656000137329102 h17.530000686645508 c3.625999927520752,0 6.576000213623047,2.9860000610351562 6.576000213623047,6.656000137329102 C30.701004028320312,22.094013214111328 27.751007080078125,25.072010040283203 24.125,25.072010040283203 zM6.595001220703125,12.713001251220703 c-3.121000051498413,0 -5.659999847412109,2.565999984741211 -5.659999847412109,5.720999717712402 c0,3.1449999809265137 2.5390000343322754,5.703000068664551 5.659999847412109,5.703000068664551 h17.530000686645508 c3.1110000610351562,0 5.642000198364258,-2.558000087738037 5.642000198364258,-5.703000068664551 c0,-3.1549999713897705 -2.5310001373291016,-5.720999717712402 -5.642000198364258,-5.720999717712402 H6.595001220703125 z" id="svg_36" transform=""/>
	</g>
	<g id="svg_37" transform="">
		<path style="fill:#178282;" d="M24.125,23.668994903564453 h-17.530000686645508 c-2.8610000610351562,0 -5.188000202178955,-2.3480000495910645 -5.188000202178955,-5.235000133514404 c0,-2.88700008392334 2.327000141143799,-5.235000133514404 5.188000202178955,-5.235000133514404 h17.530000686645508 c2.8600001335144043,0 5.188000202178955,2.3480000495910645 5.188000202178955,5.235000133514404 C29.313003540039062,21.321002960205078 26.986007690429688,23.668994903564453 24.125,23.668994903564453 zM6.595001220703125,14.133991241455078 c-2.3450000286102295,0 -4.252999782562256,1.9290000200271606 -4.252999782562256,4.300000190734863 c0,2.371000051498413 1.9079999923706055,4.300000190734863 4.252999782562256,4.300000190734863 h17.530000686645508 c2.3450000286102295,0 4.252999782562256,-1.9290000200271606 4.252999782562256,-4.300000190734863 c0,-2.371000051498413 -1.9079999923706055,-4.300000190734863 -4.252999782562256,-4.300000190734863 H6.595001220703125 z" id="svg_38" transform=""/>
	</g>
	<g id="svg_39" transform="">
		<path style="fill:#178282;" d="M24.163009643554688,35.89699172973633 c-0.02300000749528408,0 -0.04700000584125519,-0.0010000000474974513 -0.07000003010034561,-0.005000001285225153 c-0.2549999952316284,-0.039000000804662704 -0.4309999942779541,-0.2770000100135803 -0.3930000066757202,-0.5320000052452087 l1.3700000047683716,-9.067999839782715 c0.039000000804662704,-0.2540000081062317 0.2809999883174896,-0.4270000159740448 0.5320000052452087,-0.3930000066757202 c0.2549999952316284,0.03800000995397568 0.4309999942779541,0.2770000100135803 0.3930000066757202,0.5320000052452087 l-1.3700000047683716,9.067999839782715 C24.590011596679688,35.73100662231445 24.389999389648438,35.89699172973633 24.163009643554688,35.89699172973633 z" id="svg_40" transform=""/>
	</g>
	<g id="svg_41" transform="">
		<path style="fill:#178282;" d="M6.5579986572265625,35.89699172973633 c-0.2280000001192093,0 -0.4270000159740448,-0.16600002348423004 -0.4620000123977661,-0.3970000147819519 l-1.3700000047683716,-9.067999839782715 c-0.03800000995397568,-0.2549999952316284 0.13700002431869507,-0.49400001764297485 0.3930000066757202,-0.5320000052452087 c0.25600001215934753,-0.03500000014901161 0.49400001764297485,0.138000026345253 0.5320000052452087,0.3930000066757202 l1.3700000047683716,9.067999839782715 c0.03800000995397568,0.2549999952316284 -0.13700002431869507,0.49400001764297485 -0.3930000066757202,0.5320000052452087 C6.6049957275390625,35.8950080871582 6.5810089111328125,35.89699172973633 6.5579986572265625,35.89699172973633 z" id="svg_42" transform=""/>
	</g>
	<g id="svg_43" transform="">
		<path style="fill:#178282;" d="M20.830001831054688,12.713001251220703 h-10.940000534057617 c-0.257999986410141,0 -0.46700000762939453,-0.20900000631809235 -0.46700000762939453,-0.46700000762939453 c0,-1.0520000457763672 0.8490002155303955,-1.9070000648498535 1.8930001258850098,-1.9070000648498535 h8.071000099182129 c1.0540000200271606,0 1.9110000133514404,0.8560000061988831 1.9110000133514404,1.9070000648498535 C21.298004150390625,12.503986358642578 21.089004516601562,12.713001251220703 20.830001831054688,12.713001251220703 zM10.479995727539062,11.779010772705078 h9.758999824523926 c-0.1690000593662262,-0.2980000078678131 -0.492000013589859,-0.5049999952316284 -0.8519999980926514,-0.5049999952316284 h-8.071000099182129 C10.961990356445312,11.272998809814453 10.646011352539062,11.479999542236328 10.479995727539062,11.779010772705078 z" id="svg_44" transform=""/>
	</g>
	<g id="svg_45" transform="">
		<path style="fill:#178282;" d="M17.628005981445312,11.272998809814453 h-4.534999847412109 c-0.257999986410141,0 -0.46700000762939453,-0.20900000631809235 -0.46700000762939453,-0.46700000762939453 V0.4669990539550781 c0,-0.257999986410141 0.20900000631809235,-0.46700000762939453 0.46700000762939453,-0.46700000762939453 h4.534999847412109 c0.257999986410141,0 0.46700000762939453,0.20900000631809235 0.46700000762939453,0.46700000762939453 v10.33899974822998 C18.095001220703125,11.063983917236328 17.886001586914062,11.272998809814453 17.628005981445312,11.272998809814453 zM13.560012817382812,10.339008331298828 h3.6010000705718994 V0.9349861145019531 h-3.6010000705718994 V10.339008331298828 z" id="svg_46" transform=""/>
	</g>
</g>
	
	
	
	
	
	
	
	
	
	
</g></svg>