<?xml version="1.0" encoding="iso-8859-1"?>
<!-- Generator: Adobe Illustrator 24.2.3, SVG Export Plug-In . SVG Version: 6.00 Build 0)  -->
<svg version="1.1" id="Layer_1" xmlns="http://www.w3.org/2000/svg" xmlns:xlink="http://www.w3.org/1999/xlink" x="0px" y="0px"
	 viewBox="0 0 500 250" style="enable-background:new 0 0 500 250;" xml:space="preserve">
<g>
	<g>
		<path style="fill:#178282;" d="M107.742,57.524H92.211c-2.559,0-4.619-2.05-5.126-5.102l-1.74-10.47
			c-0.043-0.255,0.13-0.496,0.384-0.538c0.256-0.045,0.496,0.13,0.538,0.384l1.74,10.47c0.332,1.993,1.631,4.321,4.204,4.321h15.531
			c2.559,0,3.854-2.328,4.186-4.321l1.703-10.19c0.042-0.255,0.275-0.431,0.538-0.384c0.254,0.042,0.426,0.283,0.384,0.538
			l-1.703,10.19C112.342,55.474,110.29,57.524,107.742,57.524z"/>
	</g>
	<g>
		<path style="fill:#178282;" d="M108.741,44.157h-17.53c-3.636,0-6.595-2.978-6.595-6.637c0-3.67,2.959-6.656,6.595-6.656h17.53
			c3.626,0,6.576,2.986,6.576,6.656C115.317,41.179,112.367,44.157,108.741,44.157z M91.211,31.798c-3.121,0-5.66,2.566-5.66,5.721
			c0,3.145,2.539,5.703,5.66,5.703h17.53c3.111,0,5.642-2.558,5.642-5.703c0-3.155-2.531-5.721-5.642-5.721H91.211z"/>
	</g>
	<g>
		<path style="fill:#178282;" d="M108.741,42.754h-17.53c-2.861,0-5.188-2.348-5.188-5.235c0-2.887,2.327-5.235,5.188-5.235h17.53
			c2.86,0,5.188,2.348,5.188,5.235C113.929,40.406,111.602,42.754,108.741,42.754z M91.211,33.219c-2.345,0-4.253,1.929-4.253,4.3
			c0,2.371,1.908,4.3,4.253,4.3h17.53c2.345,0,4.253-1.929,4.253-4.3c0-2.371-1.908-4.3-4.253-4.3H91.211z"/>
	</g>
	<g>
		<path style="fill:#178282;" d="M108.779,54.982c-0.023,0-0.047-0.001-0.07-0.005c-0.255-0.039-0.431-0.277-0.393-0.532l1.37-9.068
			c0.039-0.254,0.281-0.427,0.532-0.393c0.255,0.038,0.431,0.277,0.393,0.532l-1.37,9.068
			C109.206,54.816,109.006,54.982,108.779,54.982z"/>
	</g>
	<g>
		<path style="fill:#178282;" d="M91.174,54.982c-0.228,0-0.427-0.166-0.462-0.397l-1.37-9.068
			c-0.038-0.255,0.137-0.494,0.393-0.532c0.256-0.035,0.494,0.138,0.532,0.393l1.37,9.068c0.038,0.255-0.137,0.494-0.393,0.532
			C91.221,54.98,91.197,54.982,91.174,54.982z"/>
	</g>
	<g>
		<path style="fill:#178282;" d="M105.446,31.798h-10.94c-0.258,0-0.467-0.209-0.467-0.467c0-1.052,0.849-1.907,1.893-1.907h8.071
			c1.054,0,1.911,0.856,1.911,1.907C105.914,31.589,105.705,31.798,105.446,31.798z M95.096,30.864h9.759
			c-0.169-0.298-0.492-0.505-0.852-0.505h-8.071C95.578,30.358,95.262,30.565,95.096,30.864z"/>
	</g>
	<g>
		<path style="fill:#178282;" d="M102.244,30.358h-4.535c-0.258,0-0.467-0.209-0.467-0.467V19.552c0-0.258,0.209-0.467,0.467-0.467
			h4.535c0.258,0,0.467,0.209,0.467,0.467v10.339C102.711,30.149,102.502,30.358,102.244,30.358z M98.176,29.424h3.601V20.02h-3.601
			V29.424z"/>
	</g>
</g>
</svg>
