<svg xmlns="http://www.w3.org/2000/svg" xmlns:xlink="http://www.w3.org/1999/xlink" version="1.1" style="" xml:space="preserve" width="32" height="36"><rect id="backgroundrect" width="100%" height="100%" x="0" y="0" fill="none" stroke="none" class="" style=""/>
































<g class="currentLayer" style=""><title>Layer 1</title>
	
	
	
	
	
	
	
	
	
	
<g id="svg_345" class="" transform="">
	<g id="svg_346" transform="">
		<path style="fill:#178282;" d="M22.439987182617188,2.4300003051757812 H10.851974487304688 c-0.257999986410141,0 -0.46799999475479126,-0.20900000631809235 -0.46799999475479126,-0.46700000762939453 c0,-1.0829999446868896 0.8659999966621399,-1.9630000591278076 1.930999994277954,-1.9630000591278076 h8.663000106811523 c1.062999963760376,0 1.9300000667572021,0.8799999952316284 1.9300000667572021,1.9630000591278076 C22.907974243164062,2.2210159301757812 22.697982788085938,2.4300003051757812 22.439987182617188,2.4300003051757812 zM11.431991577148438,1.4959945678710938 h10.432000160217285 c-0.16500000655651093,-0.3330000042915344 -0.5,-0.5609998106956482 -0.8859997987747192,-0.5609998106956482 h-8.663000106811523 C11.936996459960938,0.9350051879882812 11.599990844726562,1.1660232543945312 11.431991577148438,1.4959945678710938 z" id="svg_347" transform=""/>
	</g>
	<g id="svg_348" transform="">
		<path style="fill:#178282;" d="M22.384994506835938,34.21399688720703 h-11.458999633789062 c-1.9819999933242798,0 -3.5959999561309814,-1.627000093460083 -3.5959999561309814,-3.627000093460083 V8.151008605957031 c0,-0.257999986410141 0.21000002324581146,-0.46700000762939453 0.46799999475479126,-0.46700000762939453 h17.71500015258789 c0.257999986410141,0 0.46799999475479126,0.20900000631809235 0.46799999475479126,0.46700000762939453 v22.43600082397461 C25.981002807617188,32.587013244628906 24.367996215820312,34.21399688720703 22.384994506835938,34.21399688720703 zM8.2659912109375,8.618995666503906 v21.9689998626709 c0,1.4839999675750732 1.193000078201294,2.691999912261963 2.6600000858306885,2.691999912261963 h11.458999633789062 c1.4670000076293945,0 2.6600000858306885,-1.2079999446868896 2.6600000858306885,-2.691999912261963 V8.618995666503906 H8.2659912109375 z" id="svg_349" transform=""/>
	</g>
	<g id="svg_350" transform="">
		<path style="fill:#178282;" d="M20.774002075195312,35.84101104736328 h-8.237000465393066 c-1.1460000276565552,0 -2.078000068664551,-0.9390002489089966 -2.078000068664551,-2.0940001010894775 c0,-0.257999986410141 0.21000002324581146,-0.46700000762939453 0.46799999475479126,-0.46700000762939453 h11.458999633789062 c0.257999986410141,0 0.46799999475479126,0.20900000631809235 0.46799999475479126,0.46700000762939453 C22.852981567382812,34.902015686035156 21.919998168945312,35.84101104736328 20.774002075195312,35.84101104736328 zM11.490982055664062,34.21399688720703 c0.17800000309944153,0.40700000524520874 0.5789999961853027,0.6920002102851868 1.0460000038146973,0.6920002102851868 h8.237000465393066 c0.46700000762939453,0 0.8690000176429749,-0.2849999964237213 1.0470000505447388,-0.6920002102851868 H11.490982055664062 z" id="svg_351" transform=""/>
	</g>
	<g id="svg_352" transform="">
		<path style="fill:#178282;" d="M29.677993774414062,8.618995666503906 h-22.898000717163086 c-0.1469999998807907,0 -0.28600001335144043,-0.0690000131726265 -0.37400001287460327,-0.18700000643730164 c-0.08800002932548523,-0.11800000071525574 -0.11600000411272049,-0.27000001072883606 -0.0740000307559967,-0.41099998354911804 c0.0860000029206276,-0.29500001668930054 0.12900002300739288,-0.5839999914169312 0.12900002300739288,-0.8600000143051147 c0,-1.5360000133514404 -1.2350000143051147,-2.7860000133514404 -2.753999948501587,-2.7860000133514404 c-0.8059999942779541,0 -1.565999984741211,0.3500001132488251 -2.0889999866485596,0.9590002298355103 c-0.12700000405311584,0.14800000190734863 -0.33600011467933655,0.20100000500679016 -0.5170000195503235,0.1340000033378601 c-0.18400000035762787,-0.06800000369548798 -0.30600011348724365,-0.2430000603199005 -0.30600011348724365,-0.43799999356269836 v-0.6920002102851868 c0,-1.567000150680542 1.2730000019073486,-2.8420000076293945 2.8380000591278076,-2.8420000076293945 h26.045000076293945 c1.5540000200271606,0 2.818000078201294,1.274999976158142 2.818000078201294,2.8420000076293945 v1.4210000038146973 C32.49699401855469,7.334999084472656 31.231979370117188,8.618995666503906 29.677993774414062,8.618995666503906 zM7.358001708984375,7.683998107910156 h22.31999969482422 c1.0379999876022339,0 1.8830000162124634,-0.8640000224113464 1.8830000162124634,-1.9259999990463257 v-1.4210000038146973 c0,-1.0520000457763672 -0.8450000286102295,-1.9070000648498535 -1.8830000162124634,-1.9070000648498535 h-26.045000076293945 c-0.9320002198219299,0 -1.7100000381469727,0.675000011920929 -1.871999979019165,1.562999963760376 c0.5770000219345093,-0.3580000102519989 1.249000072479248,-0.5530002117156982 1.945000171661377,-0.5530002117156982 c2.0339999198913574,0 3.689000129699707,1.6690000295639038 3.689000129699707,3.7209999561309814 C7.39599609375,7.333015441894531 7.38299560546875,7.506996154785156 7.358001708984375,7.683998107910156 zM25.698989868164062,5.590003967285156 H10.611984252929688 c-0.257999986410141,0 -0.46799999475479126,-0.20900000631809235 -0.46799999475479126,-0.46700000762939453 c0,-0.257999986410141 0.21000002324581146,-0.46700000762939453 0.46799999475479126,-0.46700000762939453 h15.086999893188477 c0.257999986410141,0 0.46799999475479126,0.20900000631809235 0.46799999475479126,0.46700000762939453 C26.166976928710938,5.381019592285156 25.956985473632812,5.590003967285156 25.698989868164062,5.590003967285156 z" id="svg_353" transform=""/>
	</g>
	<g id="svg_354" transform="">
		<path style="fill:#178282;" d="M18.255996704101562,21.14600372314453 h-3.2209999561309814 c-1.2879999876022339,0 -2.3369998931884766,-1.0479999780654907 -2.3369998931884766,-2.3369998931884766 v-6.61899995803833 c0,-1.2879999876022339 1.0490000247955322,-2.3369998931884766 2.3369998931884766,-2.3369998931884766 h3.2209999561309814 c1.2890000343322754,0 2.3380000591278076,1.0479999780654907 2.3380000591278076,2.3369998931884766 v6.61899995803833 C20.593978881835938,20.09699249267578 19.544998168945312,21.14600372314453 18.255996704101562,21.14600372314453 zM15.035995483398438,10.788002014160156 c-0.7599999904632568,0 -1.4010000228881836,0.6420000195503235 -1.4010000228881836,1.4019999504089355 v6.61899995803833 c0,0.7599999904632568 0.6420000195503235,1.4019999504089355 1.4010000228881836,1.4019999504089355 h3.2209999561309814 c0.7730000019073486,0 1.4019999504089355,-0.6290000081062317 1.4019999504089355,-1.4019999504089355 v-6.61899995803833 c0,-0.7730000019073486 -0.6290000081062317,-1.4019999504089355 -1.4019999504089355,-1.4019999504089355 H15.035995483398438 z" id="svg_355" transform=""/>
	</g>
	<g id="svg_356" transform="">
		<path style="fill:#178282;" d="M17.386978149414062,19.256996154785156 h-1.4809999465942383 c-0.714999794960022,0 -1.319000005722046,-0.6080002188682556 -1.319000005722046,-1.3270000219345093 v-4.861000061035156 c0,-0.7189998030662537 0.6040002107620239,-1.3270000219345093 1.319000005722046,-1.3270000219345093 h1.4809999465942383 c0.7269997596740723,0 1.3179999589920044,0.5950000286102295 1.3179999589920044,1.3270000219345093 v4.861000061035156 C18.705978393554688,18.66199493408203 18.113998413085938,19.256996154785156 17.386978149414062,19.256996154785156 zM15.905990600585938,12.676002502441406 c-0.20499999821186066,0 -0.38400012254714966,0.18400000035762787 -0.38400012254714966,0.3930000066757202 v4.861000061035156 c0,0.20900000631809235 0.17900000512599945,0.3930000066757202 0.38400012254714966,0.3930000066757202 h1.4809999465942383 c0.2150000035762787,0 0.3830000162124634,-0.1720000058412552 0.3830000162124634,-0.3930000066757202 v-4.861000061035156 c0,-0.2200000137090683 -0.1680000275373459,-0.3930000066757202 -0.3830000162124634,-0.3930000066757202 H15.905990600585938 z" id="svg_357" transform=""/>
	</g>
	<g id="svg_358" transform="">
		<path style="fill:#178282;" d="M3.707000732421875,10.900001525878906 c-2.0439999103546143,0 -3.7070000171661377,-1.6770000457763672 -3.7070000171661377,-3.739000082015991 c0,-2.052000045776367 1.6630001068115234,-3.7209999561309814 3.7070000171661377,-3.7209999561309814 c2.0339999198913574,0 3.689000129699707,1.6690000295639038 3.689000129699707,3.7209999561309814 C7.39599609375,9.222999572753906 5.740997314453125,10.900001525878906 3.707000732421875,10.900001525878906 zM3.707000732421875,4.375007629394531 c-1.527999997138977,0 -2.7719998359680176,1.25 -2.7719998359680176,2.7860000133514404 c0,1.5460000038146973 1.2430000305175781,2.805000066757202 2.7719998359680176,2.805000066757202 c1.5180000066757202,0 2.753999948501587,-1.2580000162124634 2.753999948501587,-2.805000066757202 C6.46099853515625,5.625007629394531 5.225006103515625,4.375007629394531 3.707000732421875,4.375007629394531 zM3.707000732421875,9.198005676269531 c-0.257999986410141,0 -0.46799999475479126,-0.20900000631809235 -0.46799999475479126,-0.46700000762939453 v-3.1410000324249268 c0,-0.257999986410141 0.21000002324581146,-0.46700000762939453 0.46799999475479126,-0.46700000762939453 c0.257999986410141,0 0.46799999475479126,0.20900000631809235 0.46799999475479126,0.46700000762939453 v3.1410000324249268 C4.17401123046875,8.989021301269531 3.9639892578125,9.198005676269531 3.707000732421875,9.198005676269531 z" id="svg_359" transform=""/>
	</g>
</g></g></svg>