<svg xmlns="http://www.w3.org/2000/svg" xmlns:xlink="http://www.w3.org/1999/xlink" version="1.1" style="" xml:space="preserve" width="28" height="42"><rect id="backgroundrect" width="100%" height="100%" x="0" y="0" fill="none" stroke="none" class="" style=""/>
































<g class="currentLayer" style=""><title>Layer 1</title>
	
	
	
	
	
	
	
	
	
	
<g class="" transform=""><g id="svg_499" class="" transform="">
		<path style="fill:#178282;" d="M20.293014526367188,37.82300162315369 H7.74200439453125 c-3.759000062942505,0 -6.815999984741211,-3.0859999656677246 -6.815999984741211,-6.880000114440918 c0,-0.257999986410141 0.20900000631809235,-0.4860002398490906 0.46700000762939453,-0.4860002398490906 h25.249000549316406 c0.257999986410141,0 0.46700000762939453,0.20900000631809235 0.46700000762939453,0.46700000762939453 v0.01900000497698784 C27.108993530273438,34.736011266708374 24.051010131835938,37.82300162315369 20.293014526367188,37.82300162315369 zM1.8780059814453125,31.39101004600525 c0.23499999940395355,3.078000068664551 2.7750000953674316,5.497000217437744 5.863999843597412,5.497000217437744 h12.550999641418457 c3.0940001010894775,0 5.638000011444092,-2.427000045776367 5.864999771118164,-5.497000217437744 H1.8780059814453125 zM26.641983032226562,29.46499991416931 H1.39300537109375 c-0.257999986410141,0 -0.46700000762939453,-0.20900000631809235 -0.46700000762939453,-0.46700000762939453 V17.798999547958374 c0,-0.257999986410141 0.20900000631809235,-0.46700000762939453 0.46700000762939453,-0.46700000762939453 h25.249000549316406 c0.257999986410141,0 0.46700000762939453,0.20900000631809235 0.46700000762939453,0.46700000762939453 v11.199000358581543 C27.108993530273438,29.25600028038025 26.900009155273438,29.46499991416931 26.641983032226562,29.46499991416931 zM1.8600006103515625,28.531009435653687 H26.173995971679688 V18.266002416610718 H1.8600006103515625 V28.531009435653687 zM26.641983032226562,16.322002172470093 H1.39300537109375 c-0.257999986410141,0 -0.46700000762939453,-0.20900000631809235 -0.46700000762939453,-0.46700000762939453 c0,-3.812999963760376 3.058000087738037,-6.89900016784668 6.815999984741211,-6.89900016784668 h12.550999641418457 c3.759000062942505,0 6.815999984741211,3.0869998931884766 6.815999984741211,6.880000114440918 C27.108993530273438,16.093997716903687 26.900009155273438,16.322002172470093 26.641983032226562,16.322002172470093 zM1.8769989013671875,15.386996984481812 h24.280000686645508 c-0.23499999940395355,-3.078000068664551 -2.7750000953674316,-5.497000217437744 -5.863999843597412,-5.497000217437744 H7.74200439453125 C4.6479949951171875,9.890002965927124 2.10400390625,12.317004919052124 1.8769989013671875,15.386996984481812 z" id="svg_210" transform=""/>
	</g><g id="svg_501" class="" transform="">
		<path style="fill:#178282;" d="M21.125991821289062,39.65500235557556 H6.9090118408203125 c-0.15800000727176666,0 -0.3050000071525574,-0.0790000781416893 -0.3920000195503235,-0.2120000272989273 c-0.0860000029206276,-0.1320001184940338 -0.10000000149011612,-0.2990001142024994 -0.03600000590085983,-0.4440000057220459 c0.15000000596046448,-0.3400000035762787 0.2990001142024994,-0.6610000133514404 0.4479999840259552,-0.9810000061988831 c0.12200000137090683,-0.28200000524520874 0.25,-0.5590000152587891 0.37700000405311584,-0.8340002298355103 c0.07600001245737076,-0.16600002348423004 0.2529999911785126,-0.29600024223327637 0.4360000193119049,-0.29600024223327637 h12.550999641418457 c0.1820000261068344,0 0.3479999899864197,0.10600000619888306 0.4240001142024994,0.2709999978542328 c0.1390000879764557,0.30000001192092896 0.26600024104118347,0.5759997963905334 0.3930000066757202,0.8700000047683716 c0.12900002300739288,0.31700000166893005 0.27400001883506775,0.625 0.4350000023841858,0.9510002136230469 c0.07200001180171967,0.1449998915195465 0.06300000101327896,0.3160000145435333 -0.022000012919306755,0.4540001153945923 C21.436996459960938,39.572009801864624 21.287002563476562,39.65500235557556 21.125991821289062,39.65500235557556 zM7.634002685546875,38.720996618270874 h12.753999710083008 c-0.04900000989437103,-0.11000000685453415 -0.0950000137090683,-0.2200000137090683 -0.14000000059604645,-0.3290001153945923 c-0.08300001174211502,-0.1920001208782196 -0.16900011897087097,-0.38100001215934753 -0.2549999952316284,-0.5690000057220459 H8.041000366210938 c-0.08700001239776611,0.18900002539157867 -0.1730000078678131,0.3790000081062317 -0.2590000033378601,0.578000009059906 C7.7320098876953125,38.50799918174744 7.6829986572265625,38.61500906944275 7.634002685546875,38.720996618270874 z" id="svg_212" transform=""/>
	</g><g id="svg_503" class="" transform="">
		<path style="fill:#178282;" d="M21.792007446289062,41.749011754989624 h-15.550000190734863 c-0.8289999961853027,0 -1.503999948501587,-0.6790000200271606 -1.503999948501587,-1.5139999389648438 c0,-0.835000216960907 0.675000011920929,-1.5139999389648438 1.503999948501587,-1.5139999389648438 h15.550000190734863 c0.8289999961853027,0 1.503999948501587,0.6790000200271606 1.503999948501587,1.5139999389648438 C23.296005249023438,41.069995641708374 22.621017456054688,41.749011754989624 21.792007446289062,41.749011754989624 zM6.24200439453125,39.65500235557556 c-0.3140000104904175,0 -0.5690000057220459,0.260000079870224 -0.5690000057220459,0.5799997448921204 c0,0.3140000104904175 0.26100000739097595,0.5799997448921204 0.5690000057220459,0.5799997448921204 h15.550000190734863 c0.30900001525878906,0 0.5690000057220459,-0.26600024104118347 0.5690000057220459,-0.5799997448921204 c0,-0.3190000057220459 -0.2549999952316284,-0.5799997448921204 -0.5690000057220459,-0.5799997448921204 H6.24200439453125 z" id="svg_214" transform=""/>
	</g><g id="svg_505" class="" transform="">
		<path style="fill:#178282;" d="M26.641983032226562,31.39101004600525 H1.39300537109375 c-0.7680000066757202,0 -1.3930000066757202,-0.6209999918937683 -1.3930000066757202,-1.3830000162124634 c0,-0.8560000061988831 0.625,-1.4769999980926514 1.3930000066757202,-1.4769999980926514 h25.249000549316406 c0.7680000066757202,0 1.3930000066757202,0.6209999918937683 1.3930000066757202,1.3830000162124634 C28.035018920898438,30.770007848739624 27.410018920898438,31.39101004600525 26.641983032226562,31.39101004600525 zM1.39300537109375,29.46499991416931 c-0.25699999928474426,0 -0.4580000042915344,0.19700002670288086 -0.4580000042915344,0.4490000009536743 c0,0.3449999988079071 0.20200000703334808,0.5419999957084656 0.4580000042915344,0.5419999957084656 h25.249000549316406 c0.24900002777576447,0 0.4580000042915344,-0.20499999821186066 0.4580000042915344,-0.4490000009536743 c0,-0.3370000123977661 -0.21000002324581146,-0.5419999957084656 -0.4580000042915344,-0.5419999957084656 H1.39300537109375 zM26.641983032226562,18.266002416610718 H1.39300537109375 c-0.7680000066757202,0 -1.3930000066757202,-0.6290000081062317 -1.3930000066757202,-1.4019999504089355 c0,-0.8610000014305115 0.6119997501373291,-1.4769999980926514 1.3930000066757202,-1.4769999980926514 h25.249000549316406 c0.7680000066757202,0 1.3930000066757202,0.6290000081062317 1.3930000066757202,1.4019999504089355 C28.035018920898438,17.624004125595093 27.397018432617188,18.266002416610718 26.641983032226562,18.266002416610718 zM1.39300537109375,16.322002172470093 c-0.26100000739097595,0 -0.4580000042915344,0.20100000500679016 -0.4580000042915344,0.46799999475479126 c0,0.3330000042915344 0.20600000023841858,0.5419999957084656 0.4580000042915344,0.5419999957084656 h25.249000549316406 c0.24000002443790436,0 0.4580000042915344,-0.22300000488758087 0.4580000042915344,-0.46700000762939453 c0,-0.3320000171661377 -0.20600000023841858,-0.5419999957084656 -0.4580000042915344,-0.5419999957084656 H1.39300537109375 z" id="svg_216" transform=""/>
	</g><g id="svg_507" class="" transform="">
		<path style="fill:#178282;" d="M17.070999145507812,9.890002965927124 H10.944000244140625 c-0.257999986410141,0 -0.46700000762939453,-0.20900000631809235 -0.46700000762939453,-0.46700000762939453 v-1.625999927520752 c0,-0.257999986410141 0.20900000631809235,-0.46700000762939453 0.46700000762939453,-0.46700000762939453 h6.126999855041504 c0.257999986410141,0 0.46700000762939453,0.20900000631809235 0.46700000762939453,0.46700000762939453 v1.625999927520752 C17.539016723632812,9.681003332138062 17.329986572265625,9.890002965927124 17.070999145507812,9.890002965927124 zM11.412002563476562,8.955005407333374 h5.191999912261963 V8.262996435165405 h-5.191999912261963 V8.955005407333374 z" id="svg_218" transform=""/>
	</g><g id="svg_509" class="" transform="">
		<path style="fill:#178282;" d="M17.016006469726562,27.33400321006775 h-6.015999794006348 c-0.9320002198219299,0 -1.6890000104904175,-0.7630000114440918 -1.6890000104904175,-1.7009999752044678 v-4.50600004196167 c0,-0.9380006194114685 0.7580000162124634,-1.7009999752044678 1.6890000104904175,-1.7009999752044678 h6.015999794006348 c0.94100022315979,0 1.7079999446868896,0.7630000114440918 1.7079999446868896,1.7009999752044678 v4.50600004196167 C18.724014282226562,26.5710027217865 17.9580078125,27.33400321006775 17.016006469726562,27.33400321006775 zM11,20.36000418663025 c-0.4090000092983246,0 -0.7549999952316284,0.35100001096725464 -0.7549999952316284,0.7670000195503235 v4.50600004196167 c0,0.4230000078678131 0.33900001645088196,0.7670000195503235 0.7549999952316284,0.7670000195503235 h6.015999794006348 c0.43400001525878906,0 0.7730000019073486,-0.3370000123977661 0.7730000019073486,-0.7670000195503235 v-4.50600004196167 c0,-0.4230000078678131 -0.34700000286102295,-0.7670000195503235 -0.7730000019073486,-0.7670000195503235 H11 z" id="svg_220" transform=""/>
	</g><g id="svg_511" class="" transform="">
		<path style="fill:#178282;" d="M17.479019165039062,8.262996435165405 h-6.922999858856201 c-0.972000002861023,0 -1.7630000114440918,-0.7960000038146973 -1.7630000114440918,-1.7760000228881836 v-3.4590001106262207 c0,-0.9790002107620239 0.7910000085830688,-1.7760000228881836 1.7630000114440918,-1.7760000228881836 h6.922999858856201 c0.9560000896453857,0 1.7630000114440918,0.8140000104904175 1.7630000114440918,1.7760000228881836 v3.4590001106262207 C19.242019653320312,7.466998815536499 18.451004028320312,8.262996435165405 17.479019165039062,8.262996435165405 zM10.556015014648438,2.187000036239624 c-0.4570000171661377,0 -0.8289999961853027,0.3779999911785126 -0.8289999961853027,0.8420000076293945 v3.4590001106262207 c0,0.47200000286102295 0.3640001118183136,0.8410000205039978 0.8289999961853027,0.8410000205039978 h6.922999858856201 c0.4570000171661377,0 0.8289999961853027,-0.37700000405311584 0.8289999961853027,-0.8410000205039978 v-3.4590001106262207 c0,-0.45600011944770813 -0.3790000081062317,-0.8420000076293945 -0.8289999961853027,-0.8420000076293945 H10.556015014648438 z" id="svg_222" transform=""/>
	</g><g id="svg_513" class="" transform="">
		<path style="fill:#178282;" d="M9.260009765625,6.71200156211853 h-2.6470000743865967 c-0.5740000009536743,0 -1.0420000553131104,-0.4699999988079071 -1.0420000553131104,-1.0470000505447388 v-0.6730002164840698 c0,-0.5570002198219299 0.47699999809265137,-1.027999997138977 1.0420000553131104,-1.027999997138977 h2.6470000743865967 c0.257999986410141,0 0.46700000762939453,0.20900000631809235 0.46700000762939453,0.46700000762939453 v1.812999963760376 C9.72698974609375,6.503001928329468 9.517990112304688,6.71200156211853 9.260009765625,6.71200156211853 zM6.6129913330078125,4.897998571395874 c-0.061000000685453415,0 -0.10700000077486038,0.05700002983212471 -0.10700000077486038,0.09300000220537186 v0.6730002164840698 c0,0.06000000983476639 0.05000003054738045,0.1120000034570694 0.10700000077486038,0.1120000034570694 h2.180000066757202 v-0.8790000081062317 H6.6129913330078125 z" id="svg_224" transform=""/>
	</g><g id="svg_515" class="" transform="">
		<path style="fill:#178282;" d="M21.421005249023438,5.327998876571655 H18.774002075195312 c-0.257999986410141,0 -0.46700000762939453,-0.20900000631809235 -0.46700000762939453,-0.46700000762939453 v-1.8320000171661377 c0,-0.257999986410141 0.20900000631809235,-0.46700000762939453 0.46700000762939453,-0.46700000762939453 h2.6470000743865967 c0.5550000071525574,0 1.0230000019073486,0.4790000021457672 1.0230000019073486,1.0470000505447388 v0.6730002164840698 C22.444015502929688,4.8490025997161865 21.975997924804688,5.327998876571655 21.421005249023438,5.327998876571655 zM19.242019653320312,4.393001317977905 h2.180000066757202 c0.031000006943941116,0 0.08800005912780762,-0.046000029891729355 0.08800005912780762,-0.1120000034570694 v-0.6730002164840698 c0,-0.06600000709295273 -0.05800003558397293,-0.1120000034570694 -0.08800005912780762,-0.1120000034570694 h-2.180000066757202 V4.393001317977905 z" id="svg_226" transform=""/>
	</g><g id="svg_517" class="" transform="">
		<path style="fill:#178282;" d="M16.571990966796875,2.187000036239624 H11.444015502929688 c-0.257999986410141,0 -0.46700000762939453,-0.20900000631809235 -0.46700000762939453,-0.46700000762939453 c0,-0.8119997978210449 0.6510000228881836,-1.7200000286102295 1.5230000019073486,-1.7200000286102295 h3.0360000133514404 c0.8610000014305115,0 1.503999948501587,0.9080004692077637 1.503999948501587,1.7200000286102295 C17.039016723632812,1.9780004024505615 16.830001831054688,2.187000036239624 16.571990966796875,2.187000036239624 zM12.06298828125,1.252002477645874 h3.8990001678466797 c-0.11299999803304672,-0.18400000035762787 -0.2750000059604645,-0.3179999887943268 -0.42600011825561523,-0.3179999887943268 h-3.0360000133514404 C12.347000122070312,0.9340018033981323 12.180007934570312,1.0700032711029053 12.06298828125,1.252002477645874 z" id="svg_228" transform=""/>
	</g></g></g></svg>