<svg xmlns="http://www.w3.org/2000/svg" xmlns:xlink="http://www.w3.org/1999/xlink" version="1.1" style="" xml:space="preserve" width="25" height="36"><rect id="backgroundrect" width="100%" height="100%" x="0" y="0" fill="none" stroke="none" class="" style=""/>
































<g class="currentLayer" style=""><title>Layer 1</title><g id="svg_113" class="" transform="">
	<g id="svg_114" transform="">
		<path style="fill:#178282;" d="M19.442001342773438,36.048011779785156 H5.577003479003906 c-3.075000047683716,0 -5.577000141143799,-2.5250000953674316 -5.577000141143799,-5.628000259399414 v-16.02199935913086 c0,-5.381999969482422 4.328999996185303,-9.76099967956543 9.64900016784668,-9.76099967956543 h9.791999816894531 c3.075000047683716,0 5.576000213623047,2.5250000953674316 5.576000213623047,5.629000186920166 v20.15399932861328 C25.01800537109375,33.52399444580078 22.516006469726562,36.048011779785156 19.442001342773438,36.048011779785156 zM9.649002075195312,5.573005676269531 c-4.804999828338623,0 -8.71399974822998,3.9590001106262207 -8.71399974822998,8.824999809265137 v16.02199935913086 c0,2.5880000591278076 2.0820000171661377,4.691999912261963 4.642000198364258,4.691999912261963 h13.864999771118164 c2.559000015258789,0 4.642000198364258,-2.1040000915527344 4.642000198364258,-4.691999912261963 v-20.15399932861328 c0,-2.5880000591278076 -2.0829999446868896,-4.692999839782715 -4.642000198364258,-4.692999839782715 H9.649002075195312 zM10.667015075683594,14.247993469238281 h-3.0360000133514404 c-1.5950000286102295,0 -2.8919999599456787,-1.309000015258789 -2.8919999599456787,-2.9170000553131104 c0,-1.6080000400543213 1.2970000505447388,-2.9170000553131104 2.8919999599456787,-2.9170000553131104 h3.0360000133514404 c1.5850000381469727,0 2.874000072479248,1.309000015258789 2.874000072479248,2.9170000553131104 C13.541015625,12.939979553222656 12.25201416015625,14.247993469238281 10.667015075683594,14.247993469238281 zM7.6320037841796875,9.350013732910156 c-1.0789999961853027,0 -1.9580001831054688,0.8889999985694885 -1.9580001831054688,1.9819999933242798 c0,1.093000054359436 0.878000020980835,1.9809999465942383 1.9580001831054688,1.9809999465942383 h3.0360000133514404 c1.069000005722046,0 1.939000129699707,-0.8889999985694885 1.939000129699707,-1.9809999465942383 c0,-1.093000054359436 -0.8700000047683716,-1.9819999933242798 -1.939000129699707,-1.9819999933242798 H7.6320037841796875 z" id="svg_115" transform=""/>
	</g>
	<g id="svg_116" transform="">
		<path style="fill:#178282;" d="M19.442001342773438,36.048011779785156 H5.577003479003906 c-1.930999994277954,0 -3.7649998664855957,-1.0460000038146973 -4.7870001792907715,-2.7300000190734863 c-0.0880001038312912,-0.14399999380111694 -0.0910000130534172,-0.32400014996528625 -0.00800000037997961,-0.47200000286102295 c0.08300001174211502,-0.1459999680519104 0.23800000548362732,-0.23800000548362732 0.40700000524520874,-0.23800000548362732 h22.621000289916992 c0.1680000275373459,0 0.3230000138282776,0.0910000130534172 0.406000018119812,0.23600000143051147 c0.08300001174211502,0.1459999680519104 0.0820000022649765,0.32600077986717224 -0.004000000189989805,0.47099998593330383 C23.210006713867188,34.999977111816406 21.382003784179688,36.048011779785156 19.442001342773438,36.048011779785156 zM2.1120147705078125,33.543006896972656 c0.8819997906684875,0.9950032234191895 2.125999927520752,1.569000005722046 3.4649999141693115,1.569000005722046 h13.864999771118164 c1.3209999799728394,0 2.5809998512268066,-0.5859991908073425 3.452000141143799,-1.569000005722046 H2.1120147705078125 z" id="svg_117" transform=""/>
	</g>
	<g id="svg_118" transform="">
		<path style="fill:#178282;" d="M24.551010131835938,29.204994201660156 h-5.275000095367432 c-1.277999997138977,0 -2.318000078201294,-1.0490000247955322 -2.318000078201294,-2.3369998931884766 v-13.050999641418457 c0,-1.277999997138977 1.0399999618530273,-2.318000078201294 2.318000078201294,-2.318000078201294 h5.275000095367432 c0.257999986410141,0 0.46700000762939453,0.21000002324581146 0.46700000762939453,0.46799999475479126 v16.770000457763672 C25.01800537109375,28.99500274658203 24.80901336669922,29.204994201660156 24.551010131835938,29.204994201660156 zM19.275009155273438,12.435005187988281 c-0.7630000114440918,0 -1.3840000629425049,0.6200000047683716 -1.3840000629425049,1.3830000162124634 v13.050999641418457 c0,0.771996796131134 0.6209999918937683,1.4010000228881836 1.3840000629425049,1.4010000228881836 h4.808000087738037 v-15.835000038146973 H19.275009155273438 z" id="svg_119" transform=""/>
	</g>
	<g id="svg_120" transform="">
		<path style="fill:#178282;" d="M19.442001342773438,5.573005676269531 h-5.276000022888184 c-0.257999986410141,0 -0.46700000762939453,-0.21000002324581146 -0.46700000762939453,-0.46799999475479126 v-1.5520000457763672 c0,-0.257999986410141 0.20900000631809235,-0.46799999475479126 0.46700000762939453,-0.46799999475479126 h5.276000022888184 c0.257999986410141,0 0.46700000762939453,0.21000002324581146 0.46700000762939453,0.46799999475479126 v1.5520000457763672 C19.90900421142578,5.363014221191406 19.70001220703125,5.573005676269531 19.442001342773438,5.573005676269531 zM14.633003234863281,4.637001037597656 h4.341000080108643 v-0.6159999966621399 H14.633003234863281 V4.637001037597656 z" id="svg_121" transform=""/>
	</g>
	<g id="svg_122" transform="">
		<path style="fill:#178282;" d="M19.81200408935547,4.021003723144531 h-6.015999794006348 c-0.9110000133514404,0 -1.6519999504089355,-0.7470002174377441 -1.6519999504089355,-1.6640000343322754 V1.6839981079101562 c0,-0.9280002117156982 0.7409999966621399,-1.684000015258789 1.6519999504089355,-1.684000015258789 h6.015999794006348 c0.9210000038146973,0 1.6700000762939453,0.755999743938446 1.6700000762939453,1.684000015258789 v0.6730002164840698 C21.482009887695312,3.2739944458007812 20.733001708984375,4.021003723144531 19.81200408935547,4.021003723144531 zM13.796005249023438,0.9359817504882812 c-0.39600011706352234,0 -0.7170000076293945,0.33500000834465027 -0.7170000076293945,0.7480000257492065 v0.6730002164840698 c0,0.39600011706352234 0.3290001153945923,0.7289997935295105 0.7170000076293945,0.7289997935295105 h6.015999794006348 c0.406000018119812,0 0.7360000014305115,-0.32600077986717224 0.7360000014305115,-0.7289997935295105 V1.6839981079101562 c0,-0.4129999876022339 -0.33000001311302185,-0.7480000257492065 -0.7360000014305115,-0.7480000257492065 H13.796005249023438 z" id="svg_123" transform=""/>
	</g>
	<g id="svg_124" transform="">
		<path style="fill:#178282;" d="M24.551010131835938,26.10199737548828 h-3.3320000171661377 c-0.9010000228881836,0 -1.633000373840332,-0.7300000190734863 -1.633000373840332,-1.627000093460083 v-8.244999885559082 c0,-0.9070032238960266 0.7319999933242798,-1.6449999809265137 1.633000373840332,-1.6449999809265137 h3.3320000171661377 c0.257999986410141,0 0.46700000762939453,0.21000002324581146 0.46700000762939453,0.46799999475479126 v10.581999778747559 C25.01800537109375,25.892005920410156 24.80901336669922,26.10199737548828 24.551010131835938,26.10199737548828 zM21.21800994873047,15.519996643066406 c-0.3920000195503235,0 -0.6990032196044922,0.31200000643730164 -0.6990032196044922,0.7099997997283936 v8.244999885559082 c0,0.3820001184940338 0.3140000104904175,0.69100022315979 0.6990032196044922,0.69100022315979 h2.865000009536743 v-9.645999908447266 H21.21800994873047 z" id="svg_125" transform=""/>
	</g>
</g>
	
	
	
	
	
	
	
	
	
	
</g></svg>