<svg xmlns="http://www.w3.org/2000/svg" xmlns:xlink="http://www.w3.org/1999/xlink" version="1.1" style="" xml:space="preserve" width="27" height="38"><rect id="backgroundrect" width="100%" height="100%" x="0" y="0" fill="none" stroke="none" class="" style=""/>
































<g class="currentLayer" style=""><title>Layer 1</title>
	
	
	
	
	
	
	
	
	
	
<g id="svg_229" class="" transform="">
	<g id="svg_230" transform="">
		<path style="fill:#178282;" d="M1.8920135498046875,7.721000671386719 c-0.04700000584125519,0 -0.09600000083446503,-0.007000000216066837 -0.14300000667572021,-0.022000012919306755 c-0.19300022721290588,-0.06200002133846283 -0.32500001788139343,-0.24200020730495453 -0.32500001788139343,-0.4449999928474426 v-3.4779999256134033 c0,-2.0829999446868896 1.6790000200271606,-3.7760000228881836 3.74399995803833,-3.7760000228881836 h5.368000030517578 c2.063999891281128,0 3.74399995803833,1.694000005722046 3.74399995803833,3.7760000228881836 v1.7569999694824219 c0,0.257999986410141 -0.20900000631809235,0.46700000762939453 -0.46700000762939453,0.46700000762939453 h-2.388000011444092 c-0.257999986410141,0 -0.46700000762939453,-0.20900000631809235 -0.46700000762939453,-0.46700000762939453 v-1.7569999694824219 c0,-0.23100000619888306 -0.1850000023841858,-0.41200000047683716 -0.42100000381469727,-0.41200000047683716 h-5.368000030517578 c-0.23600000143051147,0 -0.42100000381469727,0.1810000240802765 -0.42100000381469727,0.41200000047683716 v1.8700000047683716 c0,0.21800002455711365 -0.15000000596046448,0.40700000524520874 -0.3630000054836273,0.45500001311302185 c-0.8450000286102295,0.19300022721290588 -1.5950000286102295,0.6990032196044922 -2.111999988555908,1.4240000247955322 C2.183013916015625,7.650993347167969 2.040008544921875,7.721000671386719 1.8920135498046875,7.721000671386719 zM5.1690216064453125,0.9349899291992188 c-1.5490000247955322,0 -2.809000015258789,1.274999976158142 -2.809000015258789,2.8420000076293945 v2.302999973297119 c0.43299999833106995,-0.35100001096725464 0.925000011920929,-0.6190000176429749 1.4539999961853027,-0.7889997959136963 v-1.5139999389648438 c0,-0.7419997453689575 0.6080002188682556,-1.3459999561309814 1.3550000190734863,-1.3459999561309814 h5.368000030517578 c0.7480000257492065,0 1.3560000658035278,0.6040002107620239 1.3560000658035278,1.3459999561309814 v1.2899999618530273 h1.4539999961853027 v-1.2899999618530273 c0,-1.567000150680542 -1.2599999904632568,-2.8420000076293945 -2.809999942779541,-2.8420000076293945 H5.1690216064453125 zM4.2810211181640625,5.645988464355469 h0.010000004433095455 H4.2810211181640625 z" id="svg_231" transform=""/>
	</g>
	<g id="svg_232" transform="">
		<path style="fill:#178282;" d="M21.9580078125,38.121986389160156 h-16.75200080871582 c-2.513000011444092,0 -4.558000087738037,-2.071000099182129 -4.558000087738037,-4.618000030517578 c0,-0.257999986410141 0.20900000631809235,-0.46700000762939453 0.46700000762939453,-0.46700000762939453 h24.952999114990234 c0.257999986410141,0 0.46700000762939453,0.20900000631809235 0.46700000762939453,0.46700000762939453 C26.535018920898438,36.050010681152344 24.482009887695312,38.121986389160156 21.9580078125,38.121986389160156 zM1.6110076904296875,33.97100067138672 c0.22699999809265137,1.810999870300293 1.751999855041504,3.2160000801086426 3.5940001010894775,3.2160000801086426 h16.75200080871582 c1.8519999980926514,0 3.384999990463257,-1.4049999713897705 3.61299991607666,-3.2160000801086426 H1.6110076904296875 zM26.068008422851562,31.988990783691406 h-24.952999114990234 c-0.257999986410141,0 -0.46700000762939453,-0.20900000631809235 -0.46700000762939453,-0.46700000762939453 v-16.209999084472656 c0,-0.257999986410141 0.20900000631809235,-0.46700000762939453 0.46700000762939453,-0.46700000762939453 h24.952999114990234 c0.257999986410141,0 0.46700000762939453,0.20900000631809235 0.46700000762939453,0.46700000762939453 v16.209999084472656 C26.535018920898438,31.779991149902344 26.326019287109375,31.988990783691406 26.068008422851562,31.988990783691406 zM1.5820159912109375,31.055015563964844 h24.018999099731445 V15.778984069824219 H1.5820159912109375 V31.055015563964844 zM26.068008422851562,13.796989440917969 h-24.952999114990234 c-0.257999986410141,0 -0.46700000762939453,-0.20900000631809235 -0.46700000762939453,-0.46700000762939453 V9.684989929199219 c0,-2.5460000038146973 2.0450000762939453,-4.618000030517578 4.558000087738037,-4.618000030517578 h11.25 v-0.5419999957084656 c0,-0.6190000176429749 0.48200011253356934,-1.1030000448226929 1.097000002861023,-1.1030000448226929 h4.145999908447266 c0.5950000286102295,0 1.0780000686645508,0.4950000047683716 1.0780000686645508,1.1030000448226929 v0.6180002093315125 c2.1389999389648438,0.3840007185935974 3.757999897003174,2.299999952316284 3.757999897003174,4.541999816894531 v3.6459999084472656 C26.535018920898438,13.588005065917969 26.326019287109375,13.796989440917969 26.068008422851562,13.796989440917969 zM1.5820159912109375,12.862998962402344 h24.018999099731445 V9.684989929199219 c0,-1.906000018119812 -1.4620000123977661,-3.5160000324249268 -3.328000068664551,-3.6659998893737793 c-0.24300022423267365,-0.02000000886619091 -0.4300000071525574,-0.22200000286102295 -0.4300000071525574,-0.46600010991096497 v-1.027999997138977 c0,-0.10400000214576721 -0.07500109821557999,-0.1680000275373459 -0.14399999380111694,-0.1680000275373459 h-4.145999908447266 c-0.09400001168251038,0 -0.16200022399425507,0.07100014388561249 -0.16200022399425507,0.1680000275373459 v1.0089999437332153 c0,0.257999986410141 -0.20900000631809235,0.46700000762939453 -0.46700000762939453,0.46700000762939453 h-11.718000411987305 c-1.9980003833770752,0 -3.624000072479248,1.6519999504089355 -3.624000072479248,3.684000015258789 V12.862998962402344 z" id="svg_233" transform=""/>
	</g>
	<g id="svg_234" transform="">
		<path style="fill:#178282;" d="M21.9580078125,38.121986389160156 h-16.75200080871582 c-2.513000011444092,0 -4.558000087738037,-2.071000099182129 -4.558000087738037,-4.618000030517578 c0,-0.257999986410141 0.20900000631809235,-0.46700000762939453 0.46700000762939453,-0.46700000762939453 h24.952999114990234 c0.257999986410141,0 0.46700000762939453,0.20900000631809235 0.46700000762939453,0.46700000762939453 C26.535018920898438,36.050010681152344 24.482009887695312,38.121986389160156 21.9580078125,38.121986389160156 zM1.6110076904296875,33.97100067138672 c0.22699999809265137,1.810999870300293 1.751999855041504,3.2160000801086426 3.5940001010894775,3.2160000801086426 h16.75200080871582 c1.8519999980926514,0 3.384999990463257,-1.4049999713897705 3.61299991607666,-3.2160000801086426 H1.6110076904296875 z" id="svg_235" transform=""/>
	</g>
	<g id="svg_236" transform="">
		<path style="fill:#178282;" d="M26.068008422851562,33.97100067138672 h-24.952999114990234 c-0.6259997487068176,0 -1.1150000095367432,-0.4840001165866852 -1.1150000095367432,-1.1030000448226929 v-0.6920002102851868 c0,-0.6190000176429749 0.5,-1.121999979019165 1.1150000095367432,-1.121999979019165 h24.952999114990234 c0.6040002107620239,0 1.1150000095367432,0.5139999985694885 1.1150000095367432,1.121999979019165 v0.6920002102851868 C27.183013916015625,33.477012634277344 26.683013916015625,33.97100067138672 26.068008422851562,33.97100067138672 zM1.115020751953125,31.988990783691406 c-0.11699999868869781,0 -0.1810000240802765,0.09600000083446503 -0.1810000240802765,0.18700000643730164 v0.6920002102851868 c0,0.10100000351667404 0.07300001382827759,0.16900022327899933 0.1810000240802765,0.16900022327899933 h24.952999114990234 c0.09800001233816147,0 0.1810000240802765,-0.07700010389089584 0.1810000240802765,-0.16900022327899933 v-0.6920002102851868 c0,-0.09600000083446503 -0.0880001038312912,-0.18700000643730164 -0.1810000240802765,-0.18700000643730164 H1.115020751953125 z" id="svg_237" transform=""/>
	</g>
	<g id="svg_238" transform="">
		<path style="fill:#178282;" d="M26.068008422851562,15.778984069824219 h-24.952999114990234 c-0.6150000095367432,0 -1.1150000095367432,-0.503000020980835 -1.1150000095367432,-1.121999979019165 v-0.6920002102851868 c0,-0.6190000176429749 0.49000000953674316,-1.1030000448226929 1.1150000095367432,-1.1030000448226929 h24.952999114990234 c0.6150000095367432,0 1.1150000095367432,0.4950000047683716 1.1150000095367432,1.1030000448226929 v0.6920002102851868 C27.183013916015625,15.275993347167969 26.683013916015625,15.778984069824219 26.068008422851562,15.778984069824219 zM1.115020751953125,13.796989440917969 c-0.1080000028014183,0 -0.1810000240802765,0.06800000369548798 -0.1810000240802765,0.1680000275373459 v0.6920002102851868 c0,0.0910000130534172 0.06300000101327896,0.18700000643730164 0.1810000240802765,0.18700000643730164 h24.952999114990234 c0.0950000137090683,0 0.1810000240802765,-0.08900011330842972 0.1810000240802765,-0.18700000643730164 v-0.6920002102851868 c0,-0.0910000130534172 -0.08300001174211502,-0.1680000275373459 -0.1810000240802765,-0.1680000275373459 H1.115020751953125 z" id="svg_239" transform=""/>
	</g>
	<g id="svg_240" transform="">
		<path style="fill:#178282;" d="M22.27301025390625,4.356010437011719 h-5.313000202178955 c-0.7580000162124634,0 -1.375,-0.6209999918937683 -1.375,-1.3830000162124634 v-1.2910000085830688 c0,-0.7630000114440918 0.6170002222061157,-1.3830000162124634 1.375,-1.3830000162124634 h5.313000202178955 c0.7580000162124634,0 1.374000072479248,0.6209999918937683 1.374000072479248,1.3830000162124634 v1.2910000085830688 C23.64801025390625,3.7350082397460938 23.031021118164062,4.356010437011719 22.27301025390625,4.356010437011719 zM16.961013793945312,1.2329940795898438 c-0.24300022423267365,0 -0.4399999976158142,0.20100000500679016 -0.4399999976158142,0.4490000009536743 v1.2910000085830688 c0,0.24800002574920654 0.19700002670288086,0.4490000009536743 0.4399999976158142,0.4490000009536743 h5.313000202178955 c0.24300022423267365,0 0.4399999976158142,-0.20100000500679016 0.4399999976158142,-0.4490000009536743 v-1.2910000085830688 c0,-0.24800002574920654 -0.19700002670288086,-0.4490000009536743 -0.4399999976158142,-0.4490000009536743 H16.961013793945312 z" id="svg_241" transform=""/>
	</g>
</g></g></svg>