<svg xmlns="http://www.w3.org/2000/svg" xmlns:xlink="http://www.w3.org/1999/xlink" version="1.1" style="" xml:space="preserve" width="44" height="36"><rect id="backgroundrect" width="100%" height="100%" x="0" y="0" fill="none" stroke="none" class="" style=""/>
































<g class="currentLayer" style=""><title>Layer 1</title>
	
	
	
	
	
	
	
	
	
	
<g id="svg_379" class="" transform="">
	<g id="svg_380" transform="">
		<path style="fill:#178282;" d="M21.8489990234375,20.136001586914062 c-1.9869999885559082,0.01600000075995922 -3.9560000896453857,-0.4840001165866852 -5.763999938964844,-1.0299999713897705 c-1.7910000085830688,-0.5330002307891846 -3.5959999561309814,-1.1330000162124634 -5.341000080108643,-1.7130000591278076 c-1.090999960899353,-0.3630000054836273 -2.180999994277954,-0.7249997854232788 -3.2739999294281006,-1.0740000009536743 c-5.0269999504089355,-1.625 -7.46999979019165,-4.264999866485596 -7.46999979019165,-8.074000358581543 c0,-4.546000003814697 3.6640000343322754,-8.244999885559082 8.168000221252441,-8.244999885559082 h27.229999542236328 c4.49399995803833,0 8.14900016784668,3.699000120162964 8.14900016784668,8.244999885559082 c0,3.750999927520752 -2.4850001335144043,6.386000156402588 -7.5970001220703125,8.053999900817871 c-0.7509998083114624,0.25099998712539673 -1.50600004196167,0.5080000162124634 -2.26200008392334,0.7639999985694885 c-2.065999984741211,0.7019997835159302 -4.203000068664551,1.4279999732971191 -6.320000171661377,2.062999963760376 C25.361007690429688,19.731002807617188 23.64801025390625,20.136001586914062 21.8489990234375,20.136001586914062 zM8.167999267578125,0.9340057373046875 c-3.98799991607666,0 -7.232999801635742,3.2799999713897705 -7.232999801635742,7.310999870300293 c0,3.3510000705718994 2.2309999465942383,5.701000213623047 6.821000099182129,7.184000015258789 c1.0950000286102295,0.3500001132488251 2.189000129699707,0.7129997611045837 3.2829999923706055,1.0770000219345093 c1.7380001544952393,0.578000009059906 3.5360000133514404,1.1759999990463257 5.314000129699707,1.7059998512268066 c1.7369999885559082,0.523999810218811 3.61899995803833,0.9870002269744873 5.489999771118164,0.991000235080719 c1.690000057220459,0 3.3259999752044678,-0.3890001177787781 5.255000114440918,-0.972000002861023 c2.1019999980926514,-0.6300002336502075 4.230000019073486,-1.3530000448226929 6.289000034332275,-2.052000045776367 c0.7559998035430908,-0.25699999928474426 1.5130000114440918,-0.5139999985694885 2.2690000534057617,-0.7670000195503235 c4.682000160217285,-1.5269999504089355 6.955999851226807,-3.871000051498413 6.955999851226807,-7.165999889373779 c0,-4.031000137329102 -3.236999988555908,-7.310999870300293 -7.215000152587891,-7.310999870300293 H8.167999267578125 z" id="svg_381" transform=""/>
	</g>
	<g id="svg_382" transform="">
		<path style="fill:#178282;" d="M21.761001586914062,18.516006469726562 c-2.4100000858306885,0 -4.810999870300293,-0.7809997797012329 -9.470999717712402,-2.327000141143799 c-1.2610000371932983,-0.4179999828338623 -2.691999912261963,-0.8930002450942993 -4.340000152587891,-1.4229999780654907 c-2.7290000915527344,-0.8759998083114624 -6.359000205993652,-2.50600004196167 -6.359000205993652,-6.520999908447266 c0,-3.6600000858306885 2.950000047683716,-6.63700008392334 6.576000213623047,-6.63700008392334 h27.229999542236328 c3.615999937057495,0 6.557000160217285,2.9780001640319824 6.557000160217285,6.63700008392334 c0,3.938000202178955 -3.7119998931884766,5.607999801635742 -6.504000186920166,6.520999908447266 c-1.4320000410079956,0.47200000286102295 -2.7009999752044678,0.8980002403259277 -3.8350000381469727,1.2799999713897705 C26.701995849609375,17.697998046875 24.227005004882812,18.516006469726562 21.761001586914062,18.516006469726562 zM8.167999267578125,2.5420074462890625 c-3.1110000610351562,0 -5.642000198364258,2.558000087738037 -5.642000198364258,5.703000068664551 c0,2.5910000801086426 1.8140000104904175,4.380000114440918 5.710000038146973,5.631999969482422 c1.6510000228881836,0.531000018119812 3.0850000381469727,1.0069999694824219 4.3480000495910645,1.4259999990463257 c9.220000267028809,3.058000087738037 9.220000267028809,3.056999921798706 18.73200035095215,-0.14300000667572021 c1.1369999647140503,-0.3820001184940338 2.4070000648498535,-0.8100000023841858 3.8420000076293945,-1.2820000648498535 c4.053999900817871,-1.3259999752044678 5.861000061035156,-3.062999963760376 5.861000061035156,-5.632999897003174 c0,-3.1449999809265137 -2.5219998359680176,-5.703000068664551 -5.623000144958496,-5.703000068664551 H8.167999267578125 z" id="svg_383" transform=""/>
	</g>
	<g id="svg_384" transform="">
		<path style="fill:#178282;" d="M13.406005859375,13.423019409179688 c-0.11600000411272049,0 -0.23200002312660217,-0.04200001433491707 -0.322000116109848,-0.12900002300739288 c-0.18700000643730164,-0.17800000309944153 -0.19500000774860382,-0.4740000069141388 -0.017000000923871994,-0.6610000133514404 c6.118000030517578,-6.445000171661377 17.273000717163086,-8.397000312805176 23.37700080871582,-8.987000465393066 c0.257999986410141,-0.02300000749528408 0.48500001430511475,0.164000004529953 0.5099999904632568,0.42000001668930054 c0.025000007823109627,0.25699999928474426 -0.164000004529953,0.48500001430511475 -0.42000001668930054,0.5099999904632568 c-5.974999904632568,0.5770000219345093 -16.8799991607666,2.4760000705718994 -22.790000915527344,8.699999809265137 C13.652999877929688,13.374008178710938 13.529006958007812,13.423019409179688 13.406005859375,13.423019409179688 z" id="svg_385" transform=""/>
	</g>
	<g id="svg_386" transform="">
		<path style="fill:#178282;" d="M24.235000610351562,34.38200378417969 h-4.923999786376953 c-0.257999986410141,0 -0.46700000762939453,-0.20900000631809235 -0.46700000762939453,-0.46700000762939453 v-7.965000152587891 c0,-0.257999986410141 0.20900000631809235,-0.46700000762939453 0.46700000762939453,-0.46700000762939453 h4.923999786376953 c0.257999986410141,0 0.46700000762939453,0.20900000631809235 0.46700000762939453,0.46700000762939453 v7.965000152587891 C24.701995849609375,34.17301940917969 24.492996215820312,34.38200378417969 24.235000610351562,34.38200378417969 zM19.779006958007812,33.44700622558594 h3.989000082015991 v-7.03000020980835 h-3.989000082015991 V33.44700622558594 zM24.235000610351562,24.828018188476562 h-4.923999786376953 c-0.257999986410141,0 -0.46700000762939453,-0.20900000631809235 -0.46700000762939453,-0.46700000762939453 v-1.3840000629425049 c0,-0.257999986410141 0.20900000631809235,-0.46700000762939453 0.46700000762939453,-0.46700000762939453 h4.923999786376953 c0.257999986410141,0 0.46700000762939453,0.20900000631809235 0.46700000762939453,0.46700000762939453 v1.3840000629425049 C24.701995849609375,24.619003295898438 24.492996215820312,24.828018188476562 24.235000610351562,24.828018188476562 zM19.779006958007812,23.893997192382812 h3.989000082015991 V23.445022583007812 h-3.989000082015991 V23.893997192382812 zM24.235000610351562,21.874008178710938 h-4.923999786376953 c-0.257999986410141,0 -0.46700000762939453,-0.20900000631809235 -0.46700000762939453,-0.46700000762939453 v-1.9630000591278076 c0,-0.13700002431869507 0.06000000983476639,-0.2680000066757202 0.16500000655651093,-0.35700011253356934 c0.10500001162290573,-0.08800002932548523 0.24700002372264862,-0.12600000202655792 0.3779999911785126,-0.10500001162290573 c1.8960000276565552,0.31299999356269836 3.109999895095825,0.28700000047683716 4.763999938964844,-0.017000000923871994 c0.1390000581741333,-0.024000007659196854 0.27600011229515076,0.012000003829598427 0.38400012254714966,0.10100000351667404 c0.10600000619888306,0.08800002932548523 0.1680000275373459,0.2200000137090683 0.1680000275373459,0.3590001165866852 v1.9819999933242798 C24.701995849609375,21.665008544921875 24.492996215820312,21.874008178710938 24.235000610351562,21.874008178710938 zM19.779006958007812,20.940017700195312 h3.989000082015991 v-0.9630002379417419 c-1.3660000562667847,0.20600000023841858 -2.4820001125335693,0.22100000083446503 -3.989000082015991,0.011000003665685654 V20.940017700195312 z" id="svg_387" transform=""/>
	</g>
	<g id="svg_388" transform="">
		<path style="fill:#178282;" d="M24.235000610351562,26.417007446289062 h-4.923999786376953 c-0.6150000095367432,0 -1.1150000095367432,-0.5109997987747192 -1.1150000095367432,-1.1399999856948853 v-0.2430000603199005 c0,-0.6290000081062317 0.5,-1.1399999856948853 1.1150000095367432,-1.1399999856948853 h4.923999786376953 c0.625,0 1.1340000629425049,0.5109997987747192 1.1340000629425049,1.1399999856948853 v0.2430000603199005 C25.369003295898438,25.906021118164062 24.860000610351562,26.417007446289062 24.235000610351562,26.417007446289062 zM19.311004638671875,24.828018188476562 c-0.08700001239776611,0 -0.1810000240802765,0.08300001174211502 -0.1810000240802765,0.20600000023841858 v0.2430000603199005 c0,0.12300000339746475 0.09300000220537186,0.20499999821186066 0.1810000240802765,0.20499999821186066 h4.923999786376953 c0.1120000034570694,0 0.1990000605583191,-0.09000000357627869 0.1990000605583191,-0.20499999821186066 v-0.2430000603199005 c0,-0.11500000208616257 -0.08700001239776611,-0.20600000023841858 -0.1990000605583191,-0.20600000023841858 H19.311004638671875 zM24.235000610351562,23.445022583007812 h-4.923999786376953 c-0.6050000190734863,0 -1.1150000095367432,-0.5139999985694885 -1.1150000095367432,-1.121999979019165 v-0.26200011372566223 c0,-0.6190000176429749 0.5,-1.121999979019165 1.1150000095367432,-1.121999979019165 h4.923999786376953 c0.625,0 1.1340000629425049,0.503000020980835 1.1340000629425049,1.121999979019165 v0.26200011372566223 C25.369003295898438,22.942001342773438 24.860000610351562,23.445022583007812 24.235000610351562,23.445022583007812 zM19.311004638671875,21.874008178710938 c-0.0950000137090683,0 -0.1810000240802765,0.08900003135204315 -0.1810000240802765,0.18700000643730164 v0.26200011372566223 c0,0.09600000083446503 0.08800002932548523,0.18700000643730164 0.1810000240802765,0.18700000643730164 h4.923999786376953 c0.1080000028014183,0 0.1990000605583191,-0.0860000029206276 0.1990000605583191,-0.18700000643730164 v-0.26200011372566223 c0,-0.10100000351667404 -0.0910000130534172,-0.18700000643730164 -0.1990000605583191,-0.18700000643730164 H19.311004638671875 z" id="svg_389" transform=""/>
	</g>
	<g id="svg_390" transform="">
		<path style="fill:#178282;" d="M21.77301025390625,33.14802551269531 c-0.7950000166893005,0 -1.4670000076293945,-0.6759999990463257 -1.4670000076293945,-1.4769999980926514 v-3.0850000381469727 c0,-0.800000011920929 0.671999990940094,-1.4769999980926514 1.4670000076293945,-1.4769999980926514 c0.8090000152587891,0 1.4670000076293945,0.6620000004768372 1.4670000076293945,1.4769999980926514 v3.0850000381469727 C23.240005493164062,32.48600769042969 22.582000732421875,33.14802551269531 21.77301025390625,33.14802551269531 zM21.77301025390625,28.044021606445312 c-0.27799999713897705,0 -0.5320000052452087,0.257999986410141 -0.5320000052452087,0.5419999957084656 v3.0850000381469727 c0,0.2840000092983246 0.2540000081062317,0.5419999957084656 0.5320000052452087,0.5419999957084656 c0.289000004529953,0 0.5320000052452087,-0.24900002777576447 0.5320000052452087,-0.5419999957084656 v-3.0850000381469727 C22.305007934570312,28.292007446289062 22.061996459960938,28.044021606445312 21.77301025390625,28.044021606445312 z" id="svg_391" transform=""/>
	</g>
	<g id="svg_392" transform="">
		<path style="fill:#178282;" d="M24.419998168945312,36.40101623535156 h-5.294000148773193 c-0.8090000152587891,0 -1.4670000076293945,-0.6620000004768372 -1.4670000076293945,-1.4769999980926514 c0,-0.8009999990463257 0.671999990940094,-1.4769999980926514 1.4670000076293945,-1.4769999980926514 h5.294000148773193 c0.8090000152587891,0 1.4670000076293945,0.663000226020813 1.4670000076293945,1.4769999980926514 C25.887008666992188,35.73899841308594 25.22900390625,36.40101623535156 24.419998168945312,36.40101623535156 zM19.126007080078125,34.38200378417969 c-0.27799999713897705,0 -0.5320000052452087,0.2590000033378601 -0.5320000052452087,0.5419999957084656 c0,0.29400011897087097 0.24400000274181366,0.5419999957084656 0.5320000052452087,0.5419999957084656 h5.294000148773193 c0.2990001142024994,0 0.5330002307891846,-0.23800000548362732 0.5330002307891846,-0.5419999957084656 c0,-0.29400011897087097 -0.24400000274181366,-0.5419999957084656 -0.5330002307891846,-0.5419999957084656 H19.126007080078125 z" id="svg_393" transform=""/>
	</g>
</g></g></svg>